<svg viewBox="0 0 56 56" xmlns="http://www.w3.org/2000/svg" xmlns:xlink="http://www.w3.org/1999/xlink" width="56.000000" height="56.000000" fill="none">
	<rect id="Category-Camera" width="56.000000" height="56.000000" x="0.000000" y="0.000000" />
	<path id="Vector" d="M0 0L56 0L56 56L0 56L0 0Z" fill-rule="nonzero" />
	<path id="Vector" d="M14 16.3334C15.2377 16.3334 16.4247 15.8417 17.2998 14.9665C18.175 14.0914 18.6667 12.9044 18.6667 11.6667C18.6667 11.0479 18.9125 10.4544 19.3501 10.0168C19.7877 9.57921 20.3812 9.33337 21 9.33337L35 9.33337C35.6188 9.33337 36.2123 9.57921 36.6499 10.0168C37.0875 10.4544 37.3333 11.0479 37.3333 11.6667C37.3333 12.9044 37.825 14.0914 38.7002 14.9665C39.5753 15.8417 40.7623 16.3334 42 16.3334L44.3333 16.3334C45.571 16.3334 46.758 16.825 47.6332 17.7002C48.5083 18.5754 49 19.7624 49 21L49 42C49 43.2377 48.5083 44.4247 47.6332 45.2999C46.758 46.175 45.571 46.6667 44.3333 46.6667L11.6667 46.6667C10.429 46.6667 9.242 46.175 8.36683 45.2999C7.49166 44.4247 7 43.2377 7 42L7 21C7 19.7624 7.49166 18.5754 8.36683 17.7002C9.242 16.825 10.429 16.3334 11.6667 16.3334L14 16.3334Z" fill-rule="nonzero" stroke="rgb(255,255,255)" stroke-linecap="round" stroke-linejoin="round" stroke-width="2" />
	<path id="Vector" d="M28 37.3334C24.134 37.3334 21 34.1994 21 30.3334C21 26.4674 24.134 23.3334 28 23.3334C31.866 23.3334 35 26.4674 35 30.3334C35 34.1994 31.866 37.3334 28 37.3334Z" stroke="rgb(255,255,255)" stroke-linecap="round" stroke-linejoin="round" stroke-width="2" />
</svg>
