<svg viewBox="0 0 56 56" xmlns="http://www.w3.org/2000/svg" xmlns:xlink="http://www.w3.org/1999/xlink" width="56.000000" height="56.000000" fill="none">
	<rect id="Category-Computer" width="56.000000" height="56.000000" x="0.000000" y="0.000000" fill="rgb(255,255,255)" fill-opacity="0" />
	<path id="Vector" d="M0 0L56 0L56 56L0 56L0 0Z" fill-rule="nonzero" />
	<path id="Vector" d="M46.6667 9.33337C47.9553 9.33337 49 10.378 49 11.6667L49 35C49 36.2887 47.9553 37.3334 46.6667 37.3334L9.33333 37.3334C8.04467 37.3334 7 36.2887 7 35L7 11.6667C7 10.378 8.04467 9.33337 9.33333 9.33337L46.6667 9.33337Z" stroke="rgb(0,0,0)" stroke-linecap="round" stroke-linejoin="round" stroke-width="2" />
	<path id="Vector" d="M16.3333 46.6666L39.6667 46.6666" stroke="rgb(0,0,0)" stroke-linecap="round" stroke-linejoin="round" stroke-width="2" />
	<path id="Vector" d="M0 0L9.33333 0" stroke="rgb(0,0,0)" stroke-linecap="round" stroke-linejoin="round" stroke-width="2" transform="matrix(0,1,-1,0,21,37.3334)" />
	<path id="Vector" d="M0 0L9.33333 0" stroke="rgb(0,0,0)" stroke-linecap="round" stroke-linejoin="round" stroke-width="2" transform="matrix(0,1,-1,0,35,37.3334)" />
	<path id="Line 12" d="M8 32L48 32" stroke="rgb(0,0,0)" stroke-linecap="round" stroke-width="2" />
</svg>
