<svg viewBox="0 0 40 40" xmlns="http://www.w3.org/2000/svg" xmlns:xlink="http://www.w3.org/1999/xlink" width="40.000000" height="40.000000" fill="none">
	<rect id="Icon-Sale" width="40.000000" height="40.000000" x="0.000000" y="0.000000" />
	<path id="Vector" d="M36.273 20C36.273 28.9872 28.9874 36.2728 20.0003 36.2728L20.0003 38.2728C30.092 38.2728 38.273 30.0918 38.273 20L36.273 20ZM20.0003 36.2728C11.0131 36.2728 3.72754 28.9872 3.72754 20L1.72754 20C1.72754 30.0918 9.90852 38.2728 20.0003 38.2728L20.0003 36.2728ZM3.72754 20C3.72754 11.0128 11.0131 3.72729 20.0003 3.72729L20.0003 1.72729C9.90852 1.72729 1.72754 9.90827 1.72754 20L3.72754 20ZM20.0003 3.72729C28.9874 3.72729 36.273 11.0128 36.273 20L38.273 20C38.273 9.90827 30.092 1.72729 20.0003 1.72729L20.0003 3.72729Z" stroke="rgb(0,0,0)" stroke-linecap="round" stroke-linejoin="round" stroke-width="2" />
	<path id="Vector" d="M23.9002 15.2339C24.2795 15.8917 25.1204 16.1175 25.7782 15.7382C26.4361 15.3588 26.6618 14.518 26.2825 13.8602L23.9002 15.2339ZM21.8186 12.7294L21.8186 14.1044C21.834 14.1044 21.8495 14.1041 21.8649 14.1036L21.8186 12.7294ZM18.1823 27.2707L18.1823 25.8957C18.1668 25.8957 18.1514 25.896 18.136 25.8965L18.1823 27.2707ZM16.1007 24.7662C15.7213 24.1083 14.8805 23.8825 14.2227 24.2619C13.5648 24.6412 13.339 25.482 13.7184 26.1399L16.1007 24.7662ZM26.2825 13.8602C25.8285 13.0729 25.169 12.424 24.3746 11.9827L23.0393 14.3868C23.3979 14.5859 23.6954 14.8788 23.9002 15.2339L26.2825 13.8602ZM24.3746 11.9827C23.5801 11.5415 22.6806 11.3246 21.7724 11.3551L21.8649 14.1036C22.2748 14.0898 22.6808 14.1877 23.0393 14.3868L24.3746 11.9827ZM21.8186 11.3544L18.1823 11.3544L18.1823 14.1044L21.8186 14.1044L21.8186 11.3544ZM18.1823 11.3544C16.8533 11.3544 15.5787 11.8821 14.6388 12.8217L16.5831 14.7665C17.0072 14.3426 17.5824 14.1044 18.1823 14.1044L18.1823 11.3544ZM14.6388 12.8217C13.699 13.7613 13.1709 15.0357 13.1709 16.3647L15.9209 16.3647C15.9209 15.7653 16.1591 15.1905 16.5831 14.7665L14.6388 12.8217ZM13.1709 16.3647C13.1709 17.6936 13.699 18.9681 14.6388 19.9077L16.5831 17.9628C16.1591 17.5389 15.9209 16.964 15.9209 16.3647L13.1709 16.3647ZM14.6388 19.9077C15.5787 20.8472 16.8533 21.375 18.1823 21.375L18.1823 18.625C17.5824 18.625 17.0072 18.3868 16.5831 17.9628L14.6388 19.9077ZM18.1823 21.375L21.8186 21.375L21.8186 18.625L18.1823 18.625L18.1823 21.375ZM21.8186 21.375C22.4185 21.375 22.9937 21.6133 23.4178 22.0372L25.3621 20.0924C24.4222 19.1528 23.1476 18.625 21.8186 18.625L21.8186 21.375ZM23.4178 22.0372C23.8418 22.4611 24.08 23.036 24.08 23.6354L26.83 23.6354C26.83 22.3064 26.3019 21.032 25.3621 20.0924L23.4178 22.0372ZM24.08 23.6354C24.08 24.2347 23.8418 24.8096 23.4178 25.2335L25.3621 27.1783C26.3019 26.2387 26.83 24.9643 26.83 23.6354L24.08 23.6354ZM23.4178 25.2335C22.9937 25.6575 22.4185 25.8957 21.8186 25.8957L21.8186 28.6457C23.1476 28.6457 24.4222 28.1179 25.3621 27.1783L23.4178 25.2335ZM21.8186 25.8957L18.1823 25.8957L18.1823 28.6457L21.8186 28.6457L21.8186 25.8957ZM18.136 25.8965C17.726 25.9103 17.3201 25.8123 16.9615 25.6132L15.6263 28.0173C16.4208 28.4586 17.3203 28.6755 18.2285 28.6449L18.136 25.8965ZM16.9615 25.6132C16.603 25.4141 16.3055 25.1213 16.1007 24.7662L13.7184 26.1399C14.1723 26.9271 14.8319 27.5761 15.6263 28.0173L16.9615 25.6132Z" fill-rule="nonzero" stroke="rgb(0,0,0)" stroke-linecap="round" stroke-linejoin="round" stroke-width="2.75" />
	<path id="Vector" d="M1.375 0C1.375 -0.759392 0.759392 -1.375 0 -1.375C-0.759392 -1.375 -1.375 -0.759392 -1.375 0L1.375 0ZM-1.375 3.93939C-1.375 4.69879 -0.759392 5.31439 0 5.31439C0.759392 5.31439 1.375 4.69879 1.375 3.93939L-1.375 3.93939ZM1.375 19.697C1.375 18.9376 0.759392 18.322 0 18.322C-0.759392 18.322 -1.375 18.9376 -1.375 19.697L1.375 19.697ZM-1.375 23.6364C-1.375 24.3958 -0.759392 25.0114 0 25.0114C0.759392 25.0114 1.375 24.3958 1.375 23.6364L-1.375 23.6364ZM-1.375 0L-1.375 3.93939L1.375 3.93939L1.375 0L-1.375 0ZM-1.375 19.697L-1.375 23.6364L1.375 23.6364L1.375 19.697L-1.375 19.697Z" stroke="rgb(0,0,0)" stroke-linecap="round" stroke-linejoin="round" stroke-width="2.75" transform="matrix(0,1,-1,0,20,8.18176)" />
</svg>
