<svg viewBox="0 0 56 56" xmlns="http://www.w3.org/2000/svg" xmlns:xlink="http://www.w3.org/1999/xlink" width="56.000000" height="56.000000" fill="none">
	<rect id="Category-Gamepad" width="56.000000" height="56.000000" x="0.000000" y="0.000000" fill="rgb(255,255,255)" fill-opacity="0" />
	<path id="Vector" d="M0 0L56 0L56 56L0 56L0 0Z" fill-rule="nonzero" />
	<path id="Vector" d="M46.6666 14C49.244 14 51.3333 16.0893 51.3333 18.6667L51.3333 37.3333C51.3333 39.9107 49.244 42 46.6666 42L9.33329 42C6.75596 42 4.66663 39.9107 4.66663 37.3333L4.66663 18.6667C4.66663 16.0893 6.75596 14 9.33329 14L46.6666 14Z" stroke="rgb(0,0,0)" stroke-linecap="round" stroke-linejoin="round" stroke-width="2" />
	<path id="Vector" d="M14 28L23.3333 28M18.6667 23.3334L18.6667 32.6667" fill-rule="nonzero" stroke="rgb(0,0,0)" stroke-linecap="round" stroke-linejoin="round" stroke-width="2" />
	<path id="Vector" d="M0 0L0.0241672 0" stroke="rgb(0,0,0)" stroke-linecap="round" stroke-linejoin="round" stroke-width="3" transform="matrix(0,1,-1,0,35,25.6666)" />
	<path id="Vector" d="M0 0L0.0241672 0" stroke="rgb(0,0,0)" stroke-linecap="round" stroke-linejoin="round" stroke-width="3" transform="matrix(0,1,-1,0,42,30.3333)" />
</svg>
