<svg viewBox="0 0 40 40" xmlns="http://www.w3.org/2000/svg" xmlns:xlink="http://www.w3.org/1999/xlink" width="40.000000" height="40.000000" fill="none" customFrame="#000000">
	<rect id="Icon-secure" width="40.000000" height="40.000000" x="0.000000" y="0.000000" fill="rgb(255,255,255)" fill-opacity="0" />
	<g id="vuesax/outline/shield-tick">
		<g id="shield-tick">
			<path id="Vector" d="M20.0001 37.9332C18.1834 37.9332 16.3834 37.3999 14.9667 36.3499L7.80008 30.9999C5.90008 29.5832 4.41675 26.6166 4.41675 24.2666L4.41675 11.8666C4.41675 9.2999 6.30008 6.56657 8.71675 5.66657L17.0334 2.5499C18.6834 1.93324 21.2834 1.93324 22.9334 2.5499L31.2501 5.66657C33.6667 6.56657 35.5501 9.2999 35.5501 11.8666L35.5501 24.2499C35.5501 26.6166 34.0667 29.5666 32.1667 30.9832L25.0001 36.3332C23.6167 37.3999 21.8167 37.9332 20.0001 37.9332ZM17.9167 4.8999L9.60008 8.01657C8.18341 8.5499 6.93341 10.3499 6.93341 11.8832L6.93341 24.2666C6.93341 25.8499 8.05008 28.0666 9.30008 28.9999L16.4667 34.3499C18.3834 35.7832 21.6167 35.7832 23.5501 34.3499L30.7167 28.9999C31.9834 28.0499 33.0834 25.8499 33.0834 24.2666L33.0834 11.8666C33.0834 10.3499 31.8334 8.5499 30.4167 7.9999L22.1001 4.88324C20.9667 4.48324 19.0334 4.48324 17.9167 4.8999Z" fill="rgb(249.688,249.688,249.688)" fill-rule="nonzero" />
			<path id="Vector" d="M14.9667 36.3499C16.3834 37.3999 18.1834 37.9332 20.0001 37.9332C21.8167 37.9332 23.6167 37.3999 25.0001 36.3332L32.1667 30.9832C34.0667 29.5666 35.5501 26.6166 35.5501 24.2499L35.5501 11.8666C35.5501 9.2999 33.6667 6.56657 31.2501 5.66657L22.9334 2.5499C21.2834 1.93324 18.6834 1.93324 17.0334 2.5499L8.71675 5.66657C6.30008 6.56657 4.41675 9.2999 4.41675 11.8666L4.41675 24.2666C4.41675 26.6166 5.90008 29.5832 7.80008 30.9999L14.9667 36.3499ZM15.565 35.5486Q15.5636 35.5475 15.5622 35.5465L8.39829 30.1986Q7.80296 29.7547 7.25445 29.0606Q6.7089 28.3703 6.28973 27.5348Q5.87113 26.7005 5.64423 25.8524Q5.41675 25.0021 5.41675 24.2666L5.41675 11.8666Q5.41675 11.0846 5.69569 10.2631Q5.97243 9.44797 6.48275 8.7107Q6.99364 7.97258 7.65894 7.42773Q8.33104 6.87731 9.06575 6.60369L17.3843 3.48631Q17.8955 3.29528 18.5713 3.19142Q19.2481 3.0874 19.9834 3.0874Q20.7187 3.0874 21.3956 3.19142Q22.0714 3.29528 22.5833 3.48662L30.8992 6.60298Q31.6358 6.87731 32.3079 7.42773Q32.9732 7.97258 33.4841 8.7107Q33.9944 9.44797 34.2711 10.2631Q34.5501 11.0846 34.5501 11.8666L34.5501 24.2499Q34.5501 24.9914 34.3225 25.843Q34.0959 26.691 33.6774 27.5238Q33.2589 28.3564 32.7131 29.0453Q32.165 29.7372 31.569 30.1815L24.4019 35.5319Q23.5103 36.2192 22.3632 36.5791Q22.3105 36.5956 22.2575 36.6114Q21.1767 36.9332 20.0001 36.9332Q18.967 36.9332 17.9979 36.6844Q17.8124 36.6368 17.6293 36.5801Q16.4756 36.2227 15.565 35.5486ZM17.5672 3.963L9.24916 7.08016L9.24775 7.08069Q8.56507 7.3377 7.93984 7.8667Q7.36351 8.35433 6.91287 9.00632Q6.46158 9.65926 6.20842 10.3728Q5.93341 11.148 5.93341 11.8832L5.93341 24.2666Q5.93341 24.9847 6.16424 25.8117Q6.37629 26.5714 6.754 27.3251Q7.13092 28.0771 7.61098 28.6998Q8.13222 29.3759 8.70179 29.8012L15.8685 35.1512Q16.7161 35.785 17.8254 36.1147Q17.8547 36.1235 17.8842 36.1319Q18.901 36.4249 20.0022 36.4249Q21.0707 36.4249 22.0625 36.1491Q22.122 36.1325 22.1812 36.115Q23.2922 35.7859 24.1456 35.1532L31.315 29.8012Q31.8911 29.3691 32.4127 28.693Q32.8938 28.0693 33.2695 27.3179Q33.6452 26.5666 33.8555 25.8075Q34.0834 24.9845 34.0834 24.2666L34.0834 11.8666Q34.0834 11.1366 33.8079 10.364Q33.5548 9.65439 33.104 9.00215Q32.6544 8.35178 32.0799 7.86188Q31.4576 7.33129 30.7787 7.06769L22.451 3.94683Q21.9203 3.75932 21.2629 3.66801Q20.6548 3.58354 19.9994 3.58532Q19.3405 3.58712 18.7366 3.6759Q18.0764 3.77298 17.5672 3.963ZM9.60008 8.01657L17.9167 4.8999C19.0334 4.48324 20.9667 4.48324 22.1001 4.88324L30.4167 7.9999C31.8334 8.5499 33.0834 10.3499 33.0834 11.8666L33.0834 24.2666C33.0834 25.8499 31.9834 28.0499 30.7167 28.9999L23.5501 34.3499C21.6167 35.7832 18.3834 35.7832 16.4667 34.3499L9.30008 28.9999C8.05008 28.0666 6.93341 25.8499 6.93341 24.2666L6.93341 11.8832C6.93341 10.3499 8.18341 8.5499 9.60008 8.01657Z" fill="rgb(249.688,249.688,249.688)" fill-rule="evenodd" />
			<path id="Vector" d="M17.7667 23.7167C17.45 23.7167 17.1334 23.6 16.8834 23.35L14.2 20.6667C13.7167 20.1834 13.7167 19.3834 14.2 18.9C14.6834 18.4167 15.4834 18.4167 15.9667 18.9L17.7667 20.7L24.05 14.4167C24.5334 13.9334 25.3334 13.9334 25.8167 14.4167C26.3 14.9 26.3 15.7 25.8167 16.1834L18.65 23.35C18.4 23.6 18.0834 23.7167 17.7667 23.7167Z" fill="rgb(249.688,249.688,249.688)" fill-rule="nonzero" />
			<path id="Vector" d="M17.0596 19.9929L15.9667 18.9C15.4834 18.4167 14.6834 18.4167 14.2 18.9C13.7167 19.3834 13.7167 20.1834 14.2 20.6667L16.8834 23.35C17.1334 23.6 17.45 23.7167 17.7667 23.7167C18.0834 23.7167 18.4 23.6 18.65 23.35L25.8167 16.1834C26.3 15.7 26.3 14.9 25.8167 14.4167C25.3334 13.9334 24.5334 13.9334 24.05 14.4167L18.4738 19.9929L17.7667 20.7L17.0596 19.9929ZM17.6769 22.7005Q17.6296 22.6821 17.5905 22.6429L14.9071 19.9596Q14.8817 19.9342 14.8656 19.9038Q14.8375 19.8511 14.8375 19.7834Q14.8375 19.7157 14.8656 19.6629Q14.8817 19.6326 14.9071 19.6071Q14.9325 19.5817 14.9629 19.5656Q15.0157 19.5375 15.0834 19.5375Q15.1511 19.5375 15.2038 19.5656Q15.2342 19.5817 15.2596 19.6071L17.7667 22.1142L24.7571 15.1238Q24.7825 15.0984 24.8129 15.0823Q24.8657 15.0542 24.9334 15.0542Q25.0011 15.0542 25.0538 15.0823Q25.0842 15.0984 25.1096 15.1238Q25.135 15.1492 25.1511 15.1796Q25.1792 15.2323 25.1792 15.3Q25.1792 15.3677 25.1511 15.4205Q25.135 15.4509 25.1096 15.4763L17.9429 22.6429Q17.9037 22.6821 17.8565 22.7005Q17.8148 22.7167 17.7667 22.7167Q17.7186 22.7167 17.6769 22.7005Z" fill="rgb(249.688,249.688,249.688)" fill-rule="evenodd" />
			<path id="Vector" d="M0 0L40 0L40 40L0 40L0 0ZM1 39L1 1L39 1L39 39L1 39Z" opacity="0" fill="rgb(249.688,249.688,249.688)" fill-rule="evenodd" />
		</g>
	</g>
</svg>
