<svg viewBox="0 0 56 56" xmlns="http://www.w3.org/2000/svg" xmlns:xlink="http://www.w3.org/1999/xlink" width="56.000000" height="56.000000" fill="none">
	<rect id="Category-Headphone" width="56.000000" height="56.000000" x="0.000000" y="0.000000" fill="rgb(255,255,255)" fill-opacity="0" />
	<path id="Vector" d="M0 0L56 0L56 56L0 56L0 0Z" fill-rule="nonzero" />
	<path id="Vector" d="M16.3333 30.3334C18.9106 30.3334 21 32.4227 21 35L21 42C21 44.5774 18.9106 46.6667 16.3333 46.6667L14 46.6667C11.4227 46.6667 9.33331 44.5774 9.33331 42L9.33331 35C9.33331 32.4227 11.4227 30.3334 14 30.3334L16.3333 30.3334Z" stroke="rgb(0,0,0)" stroke-linecap="round" stroke-linejoin="round" stroke-width="2" />
	<path id="Vector" d="M42 30.3334C44.5773 30.3334 46.6667 32.4227 46.6667 35L46.6667 42C46.6667 44.5774 44.5773 46.6667 42 46.6667L39.6667 46.6667C37.0893 46.6667 35 44.5774 35 42L35 35C35 32.4227 37.0893 30.3334 39.6667 30.3334L42 30.3334Z" stroke="rgb(0,0,0)" stroke-linecap="round" stroke-linejoin="round" stroke-width="2" />
	<path id="Vector" d="M9.33331 35L9.33331 28C9.33331 23.0493 11.3 18.3014 14.8007 14.8007C18.3013 11.3 23.0493 9.33337 28 9.33337C32.9507 9.33337 37.6986 11.3 41.1993 14.8007C44.7 18.3014 46.6666 23.0493 46.6666 28L46.6666 35" fill-rule="nonzero" stroke="rgb(0,0,0)" stroke-linecap="round" stroke-linejoin="round" stroke-width="2" />
</svg>
