<svg viewBox="0 0 40 40" xmlns="http://www.w3.org/2000/svg" xmlns:xlink="http://www.w3.org/1999/xlink" width="40.000000" height="40.000000" fill="none">
	<rect id="Icon-Customer service" width="40.000000" height="40.000000" x="0.000000" y="0.000000" />
	<path id="Vector" d="M0 0L40 0L40 40L0 40L0 0Z" fill-rule="nonzero" />
	<path id="Vector" d="M13.3333 24.9998L13.3333 28.3332C13.3333 30.1741 11.8409 31.6665 9.99996 31.6665C8.15901 31.6665 6.66663 30.1741 6.66663 28.3332L6.66663 24.9998C6.66663 23.1589 8.15901 21.6665 9.99996 21.6665C11.8409 21.6665 13.3333 23.1589 13.3333 24.9998Z" stroke="rgb(255,255,255)" stroke-linecap="round" stroke-linejoin="round" stroke-width="2" />
	<path id="Vector" d="M33.3333 24.9998L33.3333 28.3332C33.3333 30.1741 31.8409 31.6665 30 31.6665C28.159 31.6665 26.6666 30.1741 26.6666 28.3332L26.6666 24.9998C26.6666 23.1589 28.159 21.6665 30 21.6665C31.8409 21.6665 33.3333 23.1589 33.3333 24.9998Z" stroke="rgb(255,255,255)" stroke-linecap="round" stroke-linejoin="round" stroke-width="2" />
	<path id="Vector" d="M6.66663 24.9998L6.66663 19.9998C6.66663 16.4636 8.07138 13.0722 10.5719 10.5717C13.0724 8.07126 16.4637 6.6665 20 6.6665C23.5362 6.6665 26.9276 8.07126 29.428 10.5717C31.9285 13.0722 33.3333 16.4636 33.3333 19.9998L33.3333 24.9998" fill-rule="nonzero" stroke="rgb(255,255,255)" stroke-linecap="round" stroke-linejoin="round" stroke-width="2" />
	<path id="Vector" d="M30 31.6665C30 32.9926 28.9464 34.2644 27.0711 35.202C25.1957 36.1397 22.6522 36.6665 20 36.6665" fill-rule="nonzero" stroke="rgb(255,255,255)" stroke-linecap="round" stroke-linejoin="round" stroke-width="2" />
</svg>
