<svg viewBox="0 0 40 40" xmlns="http://www.w3.org/2000/svg" xmlns:xlink="http://www.w3.org/1999/xlink" width="40.000000" height="40.000000" fill="none">
	<rect id="icon:shop" width="40.000000" height="40.000000" x="0.000000" y="0.000000" fill="rgb(255,255,255)" fill-opacity="0" />
	<g id="Group">
		<path id="Vector" d="M27.4883 5L27.4883 4L26.3833 4L26.4932 5.0995L27.4883 5ZM28.3216 13.3333L27.3266 13.4328L27.3621 13.788L27.6145 14.0404L28.3216 13.3333ZM32.4883 15L32.4896 14L32.4883 14L32.4883 15ZM36.0533 13.6567L36.7142 14.4071L36.7253 14.3974L36.7361 14.3873L36.0533 13.6567ZM36.3033 12.8817L35.3169 13.0463L35.3194 13.061L35.3223 13.0755L36.3033 12.8817ZM35.1266 5.83333L36.113 5.66867L36.1126 5.66667L35.1266 5.83333ZM34.1416 4L27.4883 4L27.4883 6L34.1416 6L34.1416 4ZM26.4932 5.0995L27.3266 13.4328L29.3167 13.2338L28.4833 4.9005L26.4932 5.0995ZM28.3216 13.3333C27.6145 14.0404 27.6148 14.0407 27.615 14.041C27.6151 14.0411 27.6154 14.0414 27.6156 14.0416C27.616 14.042 27.6164 14.0424 27.6169 14.0428C27.6178 14.0437 27.6188 14.0447 27.6199 14.0458C27.6221 14.048 27.6248 14.0506 27.6279 14.0536C27.634 14.0596 27.6418 14.0672 27.6513 14.0762C27.6702 14.0942 27.6958 14.1181 27.7278 14.147C27.7918 14.2049 27.8819 14.283 27.9964 14.3746C28.2248 14.5574 28.5541 14.7965 28.9713 15.0349C29.8015 15.5093 31.0145 16 32.4883 16L32.4883 14C31.4621 14 30.5917 13.6573 29.9636 13.2984C29.6516 13.1202 29.408 12.9426 29.2458 12.8129C29.165 12.7482 29.1053 12.6962 29.0684 12.6628C29.05 12.6462 29.0373 12.6343 29.0306 12.6279C29.0273 12.6247 29.0254 12.6229 29.0251 12.6226C29.0249 12.6224 29.0251 12.6227 29.0257 12.6233C29.026 12.6236 29.0264 12.624 29.0269 12.6245C29.0272 12.6247 29.0275 12.625 29.0278 12.6253C29.0279 12.6254 29.0281 12.6257 29.0282 12.6257C29.0285 12.626 29.0287 12.6262 28.3216 13.3333ZM32.487 16C34.0431 16.002 35.5464 15.4356 36.7142 14.4071L35.3924 12.9062C34.5904 13.6124 33.5582 14.0014 32.4896 14L32.487 16ZM36.7361 14.3873C36.9644 14.1739 37.1345 13.9059 37.2304 13.6086L35.327 12.9946C35.3354 12.9684 35.3504 12.9448 35.3705 12.9261L36.7361 14.3873ZM37.2304 13.6086C37.3263 13.3112 37.3449 12.9943 37.2843 12.6878L35.3223 13.0755C35.3169 13.0486 35.3186 13.0207 35.327 12.9946L37.2304 13.6086ZM37.2896 12.717L36.113 5.66867L34.1403 5.998L35.3169 13.0463L37.2896 12.717ZM36.1126 5.66667C36.0339 5.20098 35.7929 4.77818 35.4324 4.47313L34.1406 6L34.1406 6L36.1126 5.66667ZM35.4324 4.47313C35.0718 4.16808 34.6149 4.00048 34.1426 4L34.1406 6L34.1406 6L35.4324 4.47313Z" fill-rule="nonzero" stroke="rgb(255,255,255)" stroke-width="2" />
		<path id="Vector" d="M27.4883 5L28.4833 4.9005L28.3933 4L27.4883 4L27.4883 5ZM28.3216 13.3333L29.0287 14.0404L29.3638 13.7054L29.3167 13.2338L28.3216 13.3333ZM19.9883 13.3333L18.9883 13.3333L18.9883 13.7475L19.2812 14.0404L19.9883 13.3333ZM19.9883 5L19.9883 4L18.9883 4L18.9883 5L19.9883 5ZM26.4932 5.0995L27.3266 13.4328L29.3167 13.2338L28.4833 4.9005L26.4932 5.0995ZM28.3216 13.3333C27.6145 12.6262 27.6148 12.626 27.615 12.6257C27.6151 12.6257 27.6153 12.6254 27.6155 12.6253C27.6158 12.625 27.616 12.6247 27.6163 12.6245C27.6168 12.624 27.6172 12.6236 27.6175 12.6233C27.6181 12.6227 27.6183 12.6224 27.6182 12.6226C27.6178 12.6229 27.616 12.6247 27.6126 12.6279C27.6059 12.6343 27.5933 12.6462 27.5748 12.6628C27.5379 12.6962 27.4782 12.7482 27.3974 12.8129C27.2352 12.9426 26.9916 13.1202 26.6796 13.2984C26.0515 13.6573 25.1812 14 24.1549 14L24.1549 16C25.6287 16 26.8417 15.5093 27.6719 15.0349C28.0891 14.7965 28.4184 14.5574 28.6468 14.3746C28.7613 14.283 28.8514 14.2049 28.9154 14.147C28.9474 14.1181 28.973 14.0942 28.9919 14.0762C29.0014 14.0672 29.0092 14.0596 29.0154 14.0536C29.0184 14.0506 29.0211 14.048 29.0233 14.0458C29.0244 14.0447 29.0254 14.0437 29.0263 14.0428C29.0268 14.0424 29.0272 14.042 29.0276 14.0416C29.0278 14.0414 29.0281 14.0411 29.0282 14.041C29.0285 14.0407 29.0287 14.0404 28.3216 13.3333ZM24.1549 14C23.1287 14 22.2584 13.6573 21.6303 13.2984C21.3183 13.1202 21.0747 12.9426 20.9125 12.8129C20.8317 12.7482 20.772 12.6962 20.7351 12.6628C20.7166 12.6462 20.704 12.6343 20.6973 12.6279C20.6939 12.6247 20.6921 12.6229 20.6917 12.6226C20.6916 12.6224 20.6918 12.6227 20.6924 12.6233C20.6927 12.6236 20.6931 12.624 20.6936 12.6245C20.6939 12.6247 20.6941 12.625 20.6944 12.6253C20.6946 12.6254 20.6948 12.6257 20.6949 12.6257C20.6951 12.626 20.6954 12.6262 19.9883 13.3333C19.2812 14.0404 19.2814 14.0407 19.2817 14.041C19.2818 14.0411 19.2821 14.0414 19.2823 14.0416C19.2827 14.042 19.2831 14.0424 19.2836 14.0428C19.2845 14.0437 19.2855 14.0447 19.2866 14.0458C19.2888 14.048 19.2915 14.0506 19.2945 14.0536C19.3007 14.0596 19.3085 14.0672 19.318 14.0762C19.3369 14.0942 19.3625 14.1181 19.3945 14.147C19.4585 14.2049 19.5486 14.283 19.6631 14.3746C19.8915 14.5574 20.2208 14.7965 20.638 15.0349C21.4682 15.5093 22.6812 16 24.1549 16L24.1549 14ZM20.9883 13.3333L20.9883 5L18.9883 5L18.9883 13.3333L20.9883 13.3333ZM19.9883 6L27.4883 6L27.4883 4L19.9883 4L19.9883 6Z" fill-rule="nonzero" stroke="rgb(249.688,249.688,249.688)" stroke-width="2" />
		<path id="Vector" d="M19.9886 5L20.9886 5L20.9886 4L19.9886 4L19.9886 5ZM19.9886 13.3333L20.6957 14.0404L20.9886 13.7475L20.9886 13.3333L19.9886 13.3333ZM11.6553 13.3333L10.6602 13.2338L10.6131 13.7054L10.9482 14.0404L11.6553 13.3333ZM12.4886 5L12.4886 4L11.5836 4L11.4936 4.9005L12.4886 5ZM18.9886 5L18.9886 13.3333L20.9886 13.3333L20.9886 5L18.9886 5ZM19.9886 13.3333C19.2815 12.6262 19.2818 12.626 19.282 12.6257C19.2821 12.6257 19.2823 12.6254 19.2825 12.6253C19.2828 12.625 19.283 12.6247 19.2833 12.6245C19.2838 12.624 19.2842 12.6236 19.2845 12.6233C19.2851 12.6227 19.2853 12.6224 19.2851 12.6226C19.2848 12.6229 19.283 12.6247 19.2796 12.6279C19.2729 12.6343 19.2603 12.6462 19.2418 12.6628C19.2049 12.6962 19.1452 12.7482 19.0644 12.8129C18.9022 12.9426 18.6586 13.1202 18.3466 13.2984C17.7185 13.6573 16.8482 14 15.8219 14L15.8219 16C17.2957 16 18.5087 15.5093 19.3389 15.0349C19.7561 14.7965 20.0854 14.5574 20.3138 14.3746C20.4283 14.283 20.5184 14.2049 20.5824 14.147C20.6144 14.1181 20.64 14.0942 20.6589 14.0762C20.6684 14.0672 20.6762 14.0596 20.6824 14.0536C20.6854 14.0506 20.6881 14.048 20.6903 14.0458C20.6914 14.0447 20.6924 14.0437 20.6933 14.0428C20.6938 14.0424 20.6942 14.042 20.6946 14.0416C20.6948 14.0414 20.6951 14.0411 20.6952 14.041C20.6954 14.0407 20.6957 14.0404 19.9886 13.3333ZM15.8219 14C14.7957 14 13.9253 13.6573 13.2972 13.2984C12.9853 13.1202 12.7417 12.9426 12.5794 12.8129C12.4986 12.7482 12.439 12.6962 12.4021 12.6628C12.3836 12.6462 12.371 12.6343 12.3643 12.6279C12.3609 12.6247 12.3591 12.6229 12.3587 12.6226C12.3586 12.6224 12.3588 12.6227 12.3594 12.6233C12.3597 12.6236 12.3601 12.624 12.3606 12.6245C12.3608 12.6247 12.3611 12.625 12.3614 12.6253C12.3616 12.6254 12.3618 12.6257 12.3619 12.6257C12.3621 12.626 12.3624 12.6262 11.6553 13.3333C10.9482 14.0404 10.9484 14.0407 10.9487 14.041C10.9488 14.0411 10.9491 14.0414 10.9493 14.0416C10.9497 14.042 10.9501 14.0424 10.9506 14.0428C10.9515 14.0437 10.9525 14.0447 10.9536 14.0458C10.9558 14.048 10.9585 14.0506 10.9615 14.0536C10.9677 14.0596 10.9755 14.0672 10.9849 14.0762C11.0039 14.0942 11.0295 14.1181 11.0615 14.147C11.1255 14.2049 11.2155 14.283 11.3301 14.3746C11.5585 14.5574 11.8878 14.7965 12.305 15.0349C13.1352 15.5093 14.3482 16 15.8219 16L15.8219 14ZM12.6503 13.4328L13.4836 5.0995L11.4936 4.9005L10.6602 13.2338L12.6503 13.4328ZM12.4886 6L19.9886 6L19.9886 4L12.4886 4L12.4886 6Z" fill-rule="nonzero" stroke="rgb(249.688,249.688,249.688)" stroke-width="2" />
		<path id="Vector" d="M12.4883 5L13.4883 5L13.4883 4L12.4883 4L12.4883 5ZM5.8366 5L5.83623 6L5.8366 6L5.8366 5ZM4.84994 5.835L3.86364 5.67L3.86355 5.67056L4.84994 5.835ZM3.67494 12.8833L4.65618 13.0761L4.65896 13.062L4.66132 13.0478L3.67494 12.8833ZM3.92494 13.6583L3.24131 14.3882L3.2518 14.398L3.26256 14.4075L3.92494 13.6583ZM11.6549 13.335L12.362 14.0421L12.6145 13.7897L12.65 13.4345L11.6549 13.335ZM12.4883 5.00167L13.4833 5.10117L13.4883 5.05154L13.4883 5.00167L12.4883 5.00167ZM12.4883 4L5.8366 4L5.8366 6L12.4883 6L12.4883 4ZM5.83698 4C5.36363 3.99982 4.90556 4.16754 4.54423 4.47333L5.83623 6L5.83623 6L5.83698 4ZM4.54423 4.47333C4.1829 4.77911 3.94175 5.20314 3.86364 5.67L5.83623 6L5.83623 6L4.54423 4.47333ZM3.86355 5.67056L2.68855 12.7189L4.66132 13.0478L5.83632 5.99944L3.86355 5.67056ZM2.6937 12.6905C2.63354 12.9967 2.65224 13.3132 2.74804 13.6102L4.65145 12.9962C4.65978 13.022 4.66141 13.0495 4.65618 13.0761L2.6937 12.6905ZM2.74804 13.6102C2.84383 13.9071 3.01358 14.1749 3.24131 14.3882L4.60856 12.9285C4.62836 12.947 4.64312 12.9703 4.65145 12.9962L2.74804 13.6102ZM3.26256 14.4075C3.911 14.9808 5.35932 16.0017 7.48827 16.0017L7.48827 14.0017C6.02722 14.0017 5.03221 13.3025 4.58731 12.9092L3.26256 14.4075ZM7.48827 16.0017C8.96205 16.0017 10.175 15.511 11.0052 15.0366C11.4224 14.7982 11.7517 14.559 11.9802 14.3763C12.0947 14.2847 12.1847 14.2065 12.2487 14.1487C12.2808 14.1198 12.3063 14.0959 12.3253 14.0779C12.3347 14.0688 12.3425 14.0613 12.3487 14.0553C12.3518 14.0523 12.3544 14.0497 12.3566 14.0475C12.3577 14.0464 12.3588 14.0454 12.3597 14.0445C12.3601 14.044 12.3605 14.0436 12.3609 14.0432C12.3611 14.043 12.3614 14.0427 12.3615 14.0426C12.3618 14.0424 12.362 14.0421 11.6549 13.335C10.9478 12.6279 10.9481 12.6276 10.9483 12.6274C10.9484 12.6273 10.9486 12.6271 10.9488 12.6269C10.9491 12.6266 10.9494 12.6264 10.9496 12.6261C10.9501 12.6256 10.9505 12.6252 10.9508 12.6249C10.9514 12.6243 10.9516 12.6241 10.9515 12.6243C10.9512 12.6246 10.9493 12.6264 10.946 12.6296C10.9393 12.636 10.9266 12.6479 10.9082 12.6645C10.8712 12.6979 10.8116 12.7499 10.7308 12.8145C10.5686 12.9443 10.3249 13.1218 10.013 13.3001C9.38487 13.659 8.51449 14.0017 7.48827 14.0017L7.48827 16.0017ZM12.65 13.4345L13.4833 5.10117L11.4932 4.90216L10.6599 13.2355L12.65 13.4345ZM13.4883 5.00167L13.4883 5L11.4883 5L11.4883 5.00167L13.4883 5.00167Z" fill-rule="nonzero" stroke="rgb(249.688,249.688,249.688)" stroke-width="2" />
		<path id="Vector" d="M5 31.6667L4 31.6667L5 31.6667ZM4 15L4 31.6667L6 31.6667L6 15L4 15ZM4 31.6667C4 32.8159 4.45655 33.9181 5.2692 34.7308L6.68342 33.3166C6.24583 32.879 6 32.2855 6 31.6667L4 31.6667ZM5.2692 34.7308C6.08186 35.5434 7.18406 36 8.33333 36L8.33333 34C7.7145 34 7.121 33.7542 6.68342 33.3166L5.2692 34.7308ZM8.33333 36L31.6667 36L31.6667 34L8.33333 34L8.33333 36ZM31.6667 36C32.8159 36 33.9181 35.5434 34.7308 34.7308L33.3166 33.3166C32.879 33.7542 32.2855 34 31.6667 34L31.6667 36ZM34.7308 34.7308C35.5434 33.9181 36 32.8159 36 31.6667L34 31.6667C34 32.2855 33.7542 32.879 33.3166 33.3166L34.7308 34.7308ZM36 31.6667L36 15L34 15L34 31.6667L36 31.6667Z" fill-rule="nonzero" stroke="rgb(249.688,249.688,249.688)" stroke-width="2" />
		<path id="Vector" d="M25.7217 35L25.7217 25L23.7217 25L23.7217 35L25.7217 35ZM25.7217 25C25.7217 23.8507 25.2651 22.7485 24.4525 21.9358L23.0383 23.35C23.4758 23.7876 23.7217 24.3811 23.7217 25L25.7217 25ZM24.4525 21.9358C23.6398 21.1232 22.5376 20.6666 21.3883 20.6666L21.3883 22.6666C22.0072 22.6666 22.6007 22.9125 23.0383 23.35L24.4525 21.9358ZM21.3883 20.6666L18.055 20.6666L18.055 22.6666L21.3883 22.6666L21.3883 20.6666ZM18.055 20.6666C16.9057 20.6666 15.8035 21.1232 14.9909 21.9358L16.4051 23.35C16.8427 22.9125 17.4362 22.6666 18.055 22.6666L18.055 20.6666ZM14.9909 21.9358C14.1782 22.7485 13.7217 23.8507 13.7217 25L15.7217 25C15.7217 24.3811 15.9675 23.7876 16.4051 23.35L14.9909 21.9358ZM13.7217 25L13.7217 35L15.7217 35L15.7217 25L13.7217 25Z" fill-rule="nonzero" stroke="rgb(249.688,249.688,249.688)" stroke-width="2" />
	</g>
</svg>
