<svg viewBox="0 0 40 40" xmlns="http://www.w3.org/2000/svg" xmlns:xlink="http://www.w3.org/1999/xlink" width="40.000000" height="40.000000" fill="none">
	<rect id="icon-delivery" width="40.000000" height="40.000000" x="0.000000" y="0.000000" fill="rgb(255,255,255)" fill-opacity="0" />
	<path id="Vector" d="M0 0L40 0L40 40L0 40L0 0Z" fill-rule="nonzero" />
	<path id="Vector" d="M11.6666 31.6667C9.8257 31.6667 8.33331 30.1743 8.33331 28.3333C8.33331 26.4924 9.8257 25 11.6666 25C13.5076 25 15 26.4924 15 28.3333C15 30.1743 13.5076 31.6667 11.6666 31.6667Z" stroke="rgb(249.688,249.688,249.688)" stroke-linecap="round" stroke-linejoin="round" stroke-width="2" />
	<path id="Vector" d="M28.3333 31.6667C26.4924 31.6667 25 30.1743 25 28.3333C25 26.4924 26.4924 25 28.3333 25C30.1743 25 31.6667 26.4924 31.6667 28.3333C31.6667 30.1743 30.1743 31.6667 28.3333 31.6667Z" stroke="rgb(249.688,249.688,249.688)" stroke-linecap="round" stroke-linejoin="round" stroke-width="2" />
	<path id="Vector" d="M8.33331 28.3335L6.99998 28.3335C5.89541 28.3335 4.99998 27.4381 4.99998 26.3335L4.99998 21.6668M3.33331 8.3335L19.6666 8.3335C20.7712 8.3335 21.6666 9.22893 21.6666 10.3335L21.6666 28.3335M15 28.3335L25 28.3335M31.6667 28.3335L33 28.3335C34.1046 28.3335 35 27.4381 35 26.3335L35 18.3335L30.5826 10.9712C30.2211 10.3688 29.5701 10.0002 28.8676 10.0002L21.6666 10.0002M35 18.3335L21.6666 18.3335" fill-rule="nonzero" stroke="rgb(249.688,249.688,249.688)" stroke-linecap="round" stroke-linejoin="round" stroke-width="2" />
	<path id="Vector" d="M8 28L6.66667 28C5.5621 28 4.66667 27.1046 4.66667 26L4.66667 21.3333M3 8L19.3333 8C20.4379 8 21.3333 8.89543 21.3333 10L21.3333 28M15 28L24.6667 28M32 28L32.6667 28C33.7712 28 34.6667 27.1046 34.6667 26L34.6667 18L30.2493 10.6377C29.8878 10.0353 29.2368 9.66667 28.5343 9.66667L21.3333 9.66667M34.6667 18L21.3333 18" fill-rule="nonzero" stroke="rgb(249.688,249.688,249.688)" stroke-linecap="round" stroke-linejoin="round" stroke-width="2" />
	<path id="Vector" d="M5 11.8184L11.6667 11.8184" stroke="rgb(249.688,249.688,249.688)" stroke-linecap="round" stroke-linejoin="round" stroke-width="2" />
	<path id="Vector" d="M1.81818 15.4546L8.48484 15.4546" stroke="rgb(249.688,249.688,249.688)" stroke-linecap="round" stroke-linejoin="round" stroke-width="2" />
	<path id="Vector" d="M5 19.0908L11.6667 19.0908" stroke="rgb(249.688,249.688,249.688)" stroke-linecap="round" stroke-linejoin="round" stroke-width="2" />
</svg>
