<svg viewBox="0 0 40 40" xmlns="http://www.w3.org/2000/svg" xmlns:xlink="http://www.w3.org/1999/xlink" width="40.000000" height="40.000000" fill="none">
	<rect id="Icon-Moneybag" width="40.000000" height="40.000000" x="0.000000" y="0.000000" fill="rgb(255,255,255)" fill-opacity="0" />
	<g id="Group">
		<path id="Vector" d="M24.4255 20.6187C24.1697 19.8954 23.696 19.2692 23.0696 18.8264C22.4432 18.3835 21.695 18.1457 20.9278 18.1456L20.9278 17.2184L19.0733 17.2184L19.0733 18.1456C18.0896 18.1456 17.1462 18.5364 16.4506 19.232C15.755 19.9276 15.3643 20.871 15.3643 21.8547C15.3643 22.8384 15.755 23.7818 16.4506 24.4774C17.1462 25.173 18.0896 25.5637 19.0733 25.5637L19.0733 29.2728C18.2666 29.2728 17.5795 28.7582 17.3236 28.0367C17.2856 27.9187 17.2243 27.8095 17.1434 27.7156C17.0625 27.6216 16.9636 27.5449 16.8525 27.4898C16.7414 27.4348 16.6204 27.4026 16.4966 27.3951C16.3729 27.3877 16.2489 27.4051 16.132 27.4464C16.0151 27.4877 15.9076 27.5521 15.816 27.6356C15.7244 27.7192 15.6505 27.8202 15.5986 27.9328C15.5468 28.0455 15.518 28.1673 15.5141 28.2912C15.5101 28.4152 15.5311 28.5386 15.5757 28.6543C15.8315 29.3775 16.3051 30.0037 16.9315 30.4466C17.5579 30.8895 18.3062 31.1273 19.0733 31.1273L19.0733 32.0546L20.9278 32.0546L20.9278 31.1273C21.9115 31.1273 22.8549 30.7365 23.5505 30.041C24.2461 29.3454 24.6369 28.402 24.6369 27.4183C24.6369 26.4346 24.2461 25.4912 23.5505 24.7956C22.8549 24.1 21.9115 23.7092 20.9278 23.7092L20.9278 20.0002C21.3114 20.0001 21.6855 20.1189 21.9987 20.3403C22.3119 20.5616 22.5487 20.8746 22.6766 21.2362C22.7585 21.4681 22.9292 21.658 23.1511 21.7641C23.261 21.8166 23.3801 21.847 23.5017 21.8534C23.6233 21.8599 23.745 21.8424 23.8598 21.8018C23.9747 21.7613 24.0804 21.6985 24.1709 21.6171C24.2615 21.5357 24.3352 21.4373 24.3877 21.3274C24.4402 21.2175 24.4706 21.0984 24.4771 20.9768C24.4835 20.8552 24.466 20.7335 24.4255 20.6187L24.4255 20.6187ZM19.0733 20.0002C18.5815 20.0002 18.1098 20.1956 17.762 20.5433C17.4142 20.8911 17.2188 21.3628 17.2188 21.8547C17.2188 22.3465 17.4142 22.8182 17.762 23.166C18.1098 23.5138 18.5815 23.7092 19.0733 23.7092L19.0733 20.0002ZM20.9278 29.2728C21.4197 29.2728 21.8914 29.0774 22.2392 28.7296C22.587 28.3818 22.7824 27.9101 22.7824 27.4183C22.7824 26.9264 22.587 26.4547 22.2392 26.1069C21.8914 25.7591 21.4197 25.5637 20.9278 25.5637L20.9278 29.2728Z" fill="rgb(249.688,249.688,249.688)" fill-rule="evenodd" />
		<path id="Vector" d="M20.9278 19.1456L19.9278 19.1456L19.9278 18.1456L20.9278 18.1456L20.9278 19.1456L19.9278 19.1456L19.9278 18.1456L20.9278 18.1456L20.9278 19.1456L19.9278 19.1456L19.9278 18.1456L20.9278 18.1456L20.9278 19.1456ZM21.9278 17.1456L21.9278 20.1457L18.9278 20.1456L18.9278 17.1456L20.9278 17.1456L21.9278 17.1456ZM20.9278 16.2184L21.9278 16.2184L21.9278 17.2184L20.9278 17.2184L20.9278 16.2184L21.9278 16.2184L21.9278 17.2184L20.9278 17.2184L20.9278 16.2184L21.9278 16.2184L21.9278 17.2184L20.9278 17.2184L20.9278 16.2184ZM19.9278 18.2184L19.9278 15.2184L22.9278 15.2184L22.9278 18.2184L20.9278 18.2184L19.9278 18.2184ZM18.0733 17.2184L18.0733 16.2184L19.0733 16.2184L19.0733 17.2184L18.0733 17.2184L18.0733 16.2184L19.0733 16.2184L19.0733 17.2184L18.0733 17.2184L18.0733 16.2184L19.0733 16.2184L19.0733 17.2184L18.0733 17.2184ZM20.0733 18.2184L17.0733 18.2184L17.0733 15.2184L20.0733 15.2184L20.0733 17.2184L20.0733 18.2184ZM20.0733 18.1456L20.0733 19.1456L19.0733 19.1456L19.0733 18.1456L20.0733 18.1456L20.0733 19.1456L19.0733 19.1456L19.0733 18.1456L20.0733 18.1456L20.0733 19.1456L19.0733 19.1456L19.0733 18.1456L20.0733 18.1456ZM18.0733 17.1456L21.0733 17.1456L21.0733 20.1456L18.0733 20.1456L18.0733 18.1456L18.0733 17.1456ZM19.0733 24.5637L20.0733 24.5637L20.0733 25.5637L19.0733 25.5637L19.0733 24.5637L20.0733 24.5637L20.0733 25.5637L19.0733 25.5637L19.0733 24.5637L20.0733 24.5637L20.0733 25.5637L19.0733 25.5637L19.0733 24.5637ZM18.0733 26.5637L18.0733 23.5637L21.0733 23.5637L21.0733 26.5637L19.0733 26.5637L18.0733 26.5637ZM20.0733 29.2728L20.0733 30.2728L19.0733 30.2728L19.0733 29.2728L20.0733 29.2728L20.0733 30.2728L19.0733 30.2728L19.0733 29.2728L20.0733 29.2728L20.0733 30.2728L19.0733 30.2728L19.0733 29.2728L20.0733 29.2728ZM18.0733 28.2728L21.0733 28.2728L21.0733 31.2728L18.0733 31.2728L18.0733 29.2728L18.0733 28.2728ZM17.6298 28.9887L16.6779 29.295L16.3716 28.343L17.3236 28.0368L17.3281 28.0509L16.3762 28.3571L17.3186 28.0228L17.3236 28.0367L16.3811 28.3711L16.0468 27.4286L16.9892 27.0943L17.3236 28.0367L17.6298 28.9887ZM17.0173 27.0848L17.6579 28.9792L15.773 29.6479L15.4287 28.6775L15.1134 27.6973L17.0173 27.0848ZM15.2423 27.7115L16.185 27.3781L16.5185 28.3209L15.5757 28.6543L15.571 28.6411L16.5138 28.3077L15.5807 28.6674L15.5757 28.6543L16.5087 28.2946L16.8685 29.2276L15.9354 29.5874L15.5757 28.6543L15.2423 27.7115ZM15.9091 29.5971L15.2159 27.7213L17.082 27.0018L17.4519 27.961L17.7947 28.9302L15.9091 29.5971ZM19.0733 30.1273L20.0733 30.1273L20.0733 31.1273L19.0733 31.1273L19.0733 30.1273L20.0733 30.1273L20.0733 31.1273L19.0733 31.1273L19.0733 30.1273L20.0733 30.1273L20.0733 31.1273L19.0733 31.1273L19.0733 30.1273ZM18.0733 32.1273L18.0733 29.1273L21.0733 29.1273L21.0733 32.1273L19.0733 32.1273L18.0733 32.1273ZM19.0733 33.0546L18.0733 33.0546L18.0733 32.0546L19.0733 32.0546L19.0733 33.0546L18.0733 33.0546L18.0733 32.0546L19.0733 32.0546L19.0733 33.0546L18.0733 33.0546L18.0733 32.0546L19.0733 32.0546L19.0733 33.0546ZM20.0733 31.0546L20.0733 34.0546L17.0733 34.0546L17.0733 31.0546L19.0733 31.0546L20.0733 31.0546ZM21.9278 32.0546L21.9278 33.0546L20.9278 33.0546L20.9278 32.0546L21.9278 32.0546L21.9278 33.0546L20.9278 33.0546L20.9278 32.0546L21.9278 32.0546L21.9278 33.0546L20.9278 33.0546L20.9278 32.0546L21.9278 32.0546ZM19.9278 31.0546L22.9278 31.0546L22.9278 34.0546L19.9278 34.0546L19.9278 32.0546L19.9278 31.0546ZM19.9278 31.1273L19.9278 30.1273L20.9278 30.1273L20.9278 31.1273L19.9278 31.1273L19.9278 30.1273L20.9278 30.1273L20.9278 31.1273L19.9278 31.1273L19.9278 30.1273L20.9278 30.1273L20.9278 31.1273L19.9278 31.1273ZM21.9278 32.1273L18.9278 32.1273L18.9278 29.1273L21.9278 29.1273L21.9278 31.1273L21.9278 32.1273ZM20.9278 24.7092L19.9278 24.7092L19.9278 23.7092L20.9278 23.7092L20.9278 24.7092L19.9278 24.7092L19.9278 23.7092L20.9278 23.7092L20.9278 24.7092L19.9278 24.7092L19.9278 23.7092L20.9278 23.7092L20.9278 24.7092ZM21.9278 22.7092L21.9278 25.7092L18.9278 25.7092L18.9278 22.7092L20.9278 22.7092L21.9278 22.7092ZM19.9278 20.0004L19.9276 19.0004L20.9276 19.0002L20.9278 20.0002L19.9281 20.0004L19.9278 19.0004L20.9278 19.0004L20.9278 20.0002L19.9278 20.0002L19.9278 19.0002L20.9278 19.0002L20.9278 20.0002L19.9278 20.0004ZM21.9281 21.0002L18.9278 21.0002L18.9278 18.0007L21.9273 17.9999L21.9278 19.9999L21.9281 21.0002ZM22.3437 20.2933L23.2866 19.9603L23.6196 20.9032L22.6769 21.2368L22.6767 21.2363L23.6194 20.9027L23.9529 21.8455L23.0101 22.179L22.3437 20.2933ZM23.0096 22.1791L22.6766 21.2362L22.3431 20.2935L24.2286 19.6265L24.8961 21.513L23.0096 22.1791ZM22.2489 21.3328L22.6802 20.4306L24.4846 21.2932L24.0533 22.1954L22.2489 21.3328ZM24.0533 22.1954L23.1511 21.7641L22.2489 21.3328L22.6802 20.4306L23.5824 20.8619L24.4846 21.2932L24.0533 22.1954ZM19.0733 19.0002L20.0733 19.0002L20.0733 20.0002L19.0733 20.0002L19.0733 19.0002L20.0733 19.0002L20.0733 20.0002L19.0733 20.0002L19.0733 19.0002L20.0733 19.0002L20.0733 20.0002L19.0733 20.0002L19.0733 19.0002ZM18.0733 21.0002L18.0733 18.0002L21.0733 18.0002L21.0733 21.0002L19.0733 21.0002L18.0733 21.0002ZM20.0733 23.7092L20.0733 24.7092L19.0733 24.7092L19.0733 23.7092L20.0733 23.7092L20.0733 24.7092L19.0733 24.7092L19.0733 23.7092L20.0733 23.7092L20.0733 24.7092L19.0733 24.7092L19.0733 23.7092L20.0733 23.7092ZM18.0733 22.7092L21.0733 22.7092L21.0733 25.7092L18.0733 25.7092L18.0733 23.7092L18.0733 22.7092ZM20.9278 30.2728L19.9278 30.2728L19.9278 29.2728L20.9278 29.2728L20.9278 30.2728L19.9278 30.2728L19.9278 29.2728L20.9278 29.2728L20.9278 30.2728L19.9278 30.2728L19.9278 29.2728L20.9278 29.2728L20.9278 30.2728ZM21.9278 28.2728L21.9278 31.2728L18.9278 31.2728L18.9278 28.2728L20.9278 28.2728L21.9278 28.2728ZM19.9278 25.5637L19.9278 24.5637L20.9278 24.5637L20.9278 25.5637L19.9278 25.5637L19.9278 24.5637L20.9278 24.5637L20.9278 25.5637L19.9278 25.5637L19.9278 24.5637L20.9278 24.5637L20.9278 25.5637L19.9278 25.5637ZM21.9278 26.5637L18.9278 26.5637L18.9278 23.5637L21.9278 23.5637L21.9278 25.5637L21.9278 26.5637ZM24.4255 20.6187Q24.2336 20.0762 23.8865 19.6174Q23.5394 19.1585 23.0696 18.8264L23.6469 18.0098L24.4635 18.5872L23.3088 20.2202L22.4923 19.6429L23.0696 18.8264Q23.5394 19.1585 23.8865 19.6174Q24.2336 20.0762 24.4255 20.6187L23.4827 20.9521L23.1493 20.0093L25.0348 19.3425L25.3682 20.2852L24.4255 20.6187ZM26.6444 20.8946L22.8733 22.2283L22.5399 21.2855Q22.3587 20.7731 21.915 20.4594L21.0985 19.8821L23.4077 16.616L24.2243 17.1933Q24.9473 17.7046 25.4815 18.4108Q26.0158 19.117 26.311 19.9518L26.6444 20.8946ZM23.0696 18.8264Q22.5998 18.4942 22.0515 18.3199Q21.5032 18.1457 20.9278 18.1456L20.9278 17.1456L21.9278 17.1457L21.9278 19.1457L20.9278 19.1456L20.9278 18.1456Q21.5032 18.1457 22.0515 18.3199Q22.5998 18.4942 23.0696 18.8264L22.4923 19.6429L21.6758 19.0656L22.8304 17.4325L23.6469 18.0098L23.0696 18.8264ZM25.0408 17.7706L22.7315 21.0367L21.915 20.4594Q21.4712 20.1457 20.9278 20.1456L19.9278 20.1456L19.9279 16.1456L20.9279 16.1456Q21.8134 16.1457 22.6573 16.4139Q23.5012 16.6821 24.2243 17.1933L25.0408 17.7706ZM20.9278 18.1456L20.9278 17.2184L21.9278 17.2184L21.9278 18.2184L19.9278 18.2184L19.9278 17.2184L20.9278 17.2184L20.9278 18.1456L19.9278 18.1456L19.9278 17.1456L21.9278 17.1456L21.9278 18.1456L20.9278 18.1456ZM22.9278 19.1456L18.9278 19.1456L18.9278 16.2184L22.9278 16.2184L22.9278 18.1456L22.9278 19.1456ZM20.9278 17.2184L19.0733 17.2184L19.0733 16.2184L20.0733 16.2184L20.0733 18.2184L19.0733 18.2184L19.0733 17.2184L20.9278 17.2184L20.9278 18.2184L19.9278 18.2184L19.9278 16.2184L20.9278 16.2184L20.9278 17.2184ZM21.9278 15.2184L21.9278 19.2184L18.0733 19.2184L18.0733 15.2184L20.9278 15.2184L21.9278 15.2184ZM19.0733 17.2184L19.0733 18.1456L18.0733 18.1456L18.0733 17.1456L20.0733 17.1456L20.0733 18.1456L19.0733 18.1456L19.0733 17.2184L20.0733 17.2184L20.0733 18.2184L18.0733 18.2184L18.0733 17.2184L19.0733 17.2184ZM17.0733 16.2184L21.0733 16.2184L21.0733 19.1456L17.0733 19.1456L17.0733 17.2184L17.0733 16.2184ZM19.0733 18.1456Q18.3355 18.1456 17.6539 18.428Q16.9723 18.7103 16.4506 19.232L15.7435 18.5249L16.4506 17.8178L17.8648 19.232L17.1577 19.9391L16.4506 19.232Q16.9723 18.7103 17.6539 18.428Q18.3355 18.1456 19.0733 18.1456L19.0733 19.1456L18.0733 19.1456L18.0733 17.1456L19.0733 17.1456L19.0733 18.1456ZM20.0733 16.1456L20.0733 20.1456L19.0733 20.1456Q18.7334 20.1456 18.4193 20.2757Q18.1052 20.4058 17.8648 20.6462L17.1577 21.3533L14.3293 18.5249L15.0364 17.8178Q15.8394 17.0148 16.8885 16.5802Q17.9377 16.1456 19.0733 16.1456L20.0733 16.1456ZM16.4506 19.232Q15.9289 19.7537 15.6466 20.4353Q15.3643 21.1169 15.3643 21.8547L14.3643 21.8547L14.3643 20.8547L16.3643 20.8547L16.3643 21.8547L15.3643 21.8547Q15.3643 21.1169 15.6466 20.4353Q15.9289 19.7537 16.4506 19.232L17.1577 19.9391L16.4506 20.6462L15.0364 19.232L15.7435 18.5249L16.4506 19.232ZM15.7435 17.1107L18.5719 19.9391L17.8648 20.6462Q17.6244 20.8866 17.4944 21.2007Q17.3643 21.5147 17.3643 21.8547L17.3643 22.8547L13.3643 22.8547L13.3643 21.8547Q13.3643 20.7191 13.7988 19.6699Q14.2334 18.6208 15.0364 17.8178L15.7435 17.1107ZM15.3643 21.8547Q15.3643 22.5925 15.6466 23.2741Q15.9289 23.9557 16.4506 24.4774L15.7435 25.1845L15.0364 24.4774L16.4506 23.0632L17.1577 23.7703L16.4506 24.4774Q15.9289 23.9557 15.6466 23.2741Q15.3643 22.5925 15.3643 21.8547L16.3643 21.8547L16.3643 22.8547L14.3643 22.8547L14.3643 21.8547L15.3643 21.8547ZM13.3643 20.8547L17.3643 20.8547L17.3643 21.8547Q17.3643 22.1946 17.4944 22.5087Q17.6244 22.8228 17.8648 23.0632L18.5719 23.7703L15.7435 26.5987L15.0364 25.8916Q14.2334 25.0886 13.7988 24.0395Q13.3643 22.9903 13.3643 21.8547L13.3643 20.8547ZM16.4506 24.4774Q16.9723 24.9991 17.6539 25.2814Q18.3355 25.5637 19.0733 25.5637L19.0733 26.5637L18.0733 26.5637L18.0733 24.5637L19.0733 24.5637L19.0733 25.5637Q18.3355 25.5637 17.6539 25.2814Q16.9723 24.9991 16.4506 24.4774L17.1577 23.7703L17.8648 24.4774L16.4506 25.8916L15.7435 25.1845L16.4506 24.4774ZM14.3293 25.1845L17.1577 22.3561L17.8648 23.0632Q18.1052 23.3036 18.4193 23.4336Q18.7334 23.5637 19.0733 23.5637L20.0733 23.5637L20.0733 27.5637L19.0733 27.5637Q17.9377 27.5637 16.8885 27.1292Q15.8394 26.6946 15.0364 25.8916L14.3293 25.1845ZM19.0733 25.5637L19.0733 29.2728L18.0733 29.2728L18.0733 28.2728L20.0733 28.2728L20.0733 29.2728L19.0733 29.2728L19.0733 25.5637L20.0733 25.5637L20.0733 26.5637L18.0733 26.5637L18.0733 25.5637L19.0733 25.5637ZM17.0733 24.5637L21.0733 24.5637L21.0733 30.2728L17.0733 30.2728L17.0733 25.5637L17.0733 24.5637ZM19.0733 29.2728Q18.4772 29.2728 17.9931 28.9262Q17.5185 28.5863 17.3236 28.0368L18.266 27.7024L18.6004 28.6449L16.7155 29.3135L16.3811 28.3711L17.3236 28.0367Q17.5178 28.5844 17.9923 28.9256Q18.4751 29.2728 19.0733 29.2728L19.0733 30.2728L18.0733 30.2728L18.0733 28.2728L19.0733 28.2728L19.0733 29.2728ZM20.0733 27.2728L20.0733 31.2728L19.0733 31.2728Q18.4552 31.2728 17.8721 31.0818Q17.308 30.8969 16.8246 30.5493Q16.3481 30.2067 15.9945 29.738Q15.6367 29.2638 15.4387 28.7054L15.1043 27.763L18.8741 26.4256L19.2085 27.3681Q19.1935 27.3258 19.1575 27.3001Q19.1194 27.2728 19.0733 27.2728L20.0733 27.2728ZM17.3236 28.0367Q17.266 27.8579 17.1434 27.7156L17.9011 27.0629L18.5537 27.8206L16.2807 29.7785L15.6281 29.0208Q15.4862 28.8561 15.4197 28.6493L15.1134 27.6973L17.9693 26.7785L18.2755 27.7305L17.3236 28.0367ZM19.5337 28.3762L16.6779 29.295L16.3716 28.343L17.3236 28.0367Q17.266 27.8579 17.1434 27.7156L16.3857 28.3682L15.7331 27.6105L18.0062 25.6526L18.6588 26.4103Q19.0458 26.8597 19.2275 27.4242L19.5337 28.3762ZM17.1434 27.7156Q17.0208 27.5732 16.8525 27.4898L17.2964 26.5938L18.1925 27.0377L16.8607 29.7259L15.9647 29.282Q15.7699 29.1855 15.6281 29.0208L14.9754 28.2631L17.2485 26.3053L17.9011 27.0629L17.1434 27.7156ZM19.3114 27.168L17.0384 29.1259L16.3857 28.3682L17.1434 27.7156Q17.0208 27.5732 16.8525 27.4898L16.4086 28.3859L15.5125 27.942L16.8442 25.2538L17.7403 25.6977Q18.2717 25.961 18.6588 26.4103L19.3114 27.168ZM16.8525 27.4898Q16.6841 27.4064 16.4966 27.3951L16.5567 26.3969L17.5549 26.4571L17.3745 29.4517L16.3763 29.3915Q16.1594 29.3784 15.9646 29.282L15.0686 28.838L16.4003 26.1499L17.2964 26.5938L16.8525 27.4898ZM18.6364 26.1416L17.3046 28.8298L16.4086 28.3859L16.8525 27.4898Q16.6842 27.4064 16.4966 27.3951L16.4365 28.3933L15.4383 28.3332L15.6187 25.3386L16.6169 25.3988Q17.2089 25.4344 17.7403 25.6977L18.6364 26.1416ZM16.4966 27.3951Q16.3091 27.3838 16.132 27.4464L15.7988 26.5035L16.7417 26.1704L17.7411 28.9991L16.7982 29.3322Q16.5933 29.4046 16.3764 29.3915L15.3782 29.3314L15.5586 26.3368L16.5567 26.3969L16.4966 27.3951ZM17.6151 25.4589L17.4347 28.4535L16.4365 28.3933L16.4966 27.3951Q16.3091 27.3838 16.132 27.4464L16.4651 28.3893L15.5222 28.7224L14.5228 25.8938L15.4657 25.5607Q16.0249 25.3631 16.6169 25.3988L17.6151 25.4589ZM16.132 27.4464Q15.9548 27.509 15.816 27.6356L15.1422 26.8967L15.881 26.2229L17.9026 28.4395L17.1637 29.1133Q17.0031 29.2598 16.7982 29.3322L15.8553 29.6653L14.8559 26.8367L15.7988 26.5035L16.132 27.4464ZM16.4086 25.2275L17.408 28.0562L16.4651 28.3893L16.1319 27.4464Q15.9548 27.509 15.816 27.6356L16.4899 28.3745L15.751 29.0483L13.7294 26.8317L14.4683 26.1579Q14.9065 25.7582 15.4657 25.5607L16.4086 25.2275ZM15.816 27.6356Q15.6772 27.7622 15.5986 27.9328L14.6903 27.5145L15.1086 26.6062L17.8335 27.8612L17.4152 28.7695Q17.3243 28.9669 17.1638 29.1133L16.4249 29.7872L14.4033 27.5706L15.1422 26.8967L15.816 27.6356ZM15.2072 25.484L17.2287 27.7006L16.4899 28.3745L15.816 27.6356Q15.6772 27.7622 15.5986 27.9328L16.5069 28.3512L16.0886 29.2595L13.3637 28.0045L13.782 27.0962Q14.0301 26.5575 14.4683 26.1579L15.2072 25.484ZM15.5986 27.9328Q15.52 28.1035 15.5141 28.2912L14.5146 28.2595L14.5464 27.26L17.5448 27.3553L17.5131 28.3548Q17.5061 28.5721 17.4152 28.7695L16.9969 29.6778L14.272 28.4228L14.6903 27.5145L15.5986 27.9328ZM14.2003 26.1879L16.9252 27.4428L16.5069 28.3512L15.5986 27.9328Q15.52 28.1035 15.5141 28.2912L16.5136 28.323L16.4818 29.3225L13.4833 29.2272L13.5151 28.2277Q13.5339 27.6349 13.782 27.0962L14.2003 26.1879ZM15.5141 28.2912Q15.5081 28.479 15.5757 28.6543L14.6426 29.0141L14.2829 28.081L17.082 27.0018L17.4418 27.9348Q17.52 28.1376 17.5131 28.3548L17.4813 29.3543L14.4828 29.259L14.5146 28.2595L15.5141 28.2912ZM13.5469 27.2282L16.5453 27.3235L16.5136 28.323L15.5141 28.2913Q15.5081 28.479 15.5757 28.6543L16.5087 28.2946L16.8685 29.2276L14.0693 30.3069L13.7096 29.3738Q13.4962 28.8204 13.5151 28.2277L13.5469 27.2282ZM15.5757 28.6543Q15.7675 29.1967 16.1146 29.6556Q16.4617 30.1144 16.9315 30.4466L16.3542 31.2631L15.5377 30.6858L16.6923 29.0528L17.5088 29.6301L16.9315 30.4466Q16.4617 30.1144 16.1146 29.6556Q15.7675 29.1967 15.5757 28.6543L16.5185 28.3209L16.8519 29.2637L14.9663 29.9305L14.6329 28.9877L15.5757 28.6543ZM13.3567 28.3784L17.1278 27.0447L17.4612 27.9875Q17.6424 28.4998 18.0862 28.8136L18.9027 29.3909L16.5934 32.657L15.7769 32.0796Q15.0538 31.5684 14.5196 30.8622Q13.9854 30.156 13.6901 29.3211L13.3567 28.3784ZM16.9315 30.4466Q17.4013 30.7788 17.9496 30.953Q18.498 31.1273 19.0733 31.1273L19.0733 32.1273L18.0733 32.1273L18.0733 30.1273L19.0733 30.1273L19.0733 31.1273Q18.498 31.1273 17.9496 30.953Q17.4013 30.7788 16.9315 30.4466L17.5088 29.6301L18.3254 30.2074L17.1707 31.8404L16.3542 31.2631L16.9315 30.4466ZM14.9604 31.5023L17.2696 28.2362L18.0862 28.8136Q18.5299 29.1273 19.0733 29.1273L20.0733 29.1273L20.0733 33.1273L19.0733 33.1273Q18.1878 33.1273 17.3438 32.8591Q16.4999 32.5909 15.7769 32.0796L14.9604 31.5023ZM19.0733 31.1273L19.0733 32.0546L18.0733 32.0546L18.0733 31.0546L20.0733 31.0546L20.0733 32.0546L19.0733 32.0546L19.0733 31.1273L20.0733 31.1273L20.0733 32.1273L18.0733 32.1273L18.0733 31.1273L19.0733 31.1273ZM17.0733 30.1273L21.0733 30.1273L21.0733 33.0546L17.0733 33.0546L17.0733 31.1273L17.0733 30.1273ZM19.0733 32.0546L20.9278 32.0546L20.9278 33.0546L19.9278 33.0546L19.9278 31.0546L20.9278 31.0546L20.9278 32.0546L19.0733 32.0546L19.0733 31.0546L20.0733 31.0546L20.0733 33.0546L19.0733 33.0546L19.0733 32.0546ZM18.0733 34.0546L18.0733 30.0546L21.9278 30.0546L21.9278 34.0546L19.0733 34.0546L18.0733 34.0546ZM20.9278 32.0546L20.9278 31.1273L21.9278 31.1273L21.9278 32.1273L19.9278 32.1273L19.9278 31.1273L20.9278 31.1273L20.9278 32.0546L19.9278 32.0546L19.9278 31.0546L21.9278 31.0546L21.9278 32.0546L20.9278 32.0546ZM22.9278 33.0546L18.9278 33.0546L18.9278 30.1273L22.9278 30.1273L22.9278 32.0546L22.9278 33.0546ZM20.9278 31.1273Q21.6656 31.1273 22.3472 30.845Q23.0288 30.5626 23.5505 30.041L24.2576 30.7481L23.5505 31.4552L22.1363 30.041L22.8434 29.3339L23.5505 30.041Q23.0288 30.5626 22.3472 30.845Q21.6656 31.1273 20.9278 31.1273L20.9278 30.1273L21.9278 30.1273L21.9278 32.1273L20.9278 32.1273L20.9278 31.1273ZM19.9278 33.1273L19.9278 29.1273L20.9278 29.1273Q21.2678 29.1273 21.5819 28.9972Q21.8959 28.8671 22.1363 28.6267L22.8434 27.9196L25.6718 30.7481L24.9647 31.4552Q24.1617 32.2582 23.1126 32.6927Q22.0634 33.1273 20.9278 33.1273L19.9278 33.1273ZM23.5505 30.041Q24.0722 29.5193 24.3545 28.8377Q24.6369 28.156 24.6369 27.4183L25.6369 27.4183L25.6369 28.4183L23.6369 28.4183L23.6369 27.4183L24.6369 27.4183Q24.6369 28.156 24.3545 28.8377Q24.0722 29.5193 23.5505 30.041L22.8434 29.3339L23.5505 28.6267L24.9647 30.041L24.2576 30.7481L23.5505 30.041ZM24.2576 32.1623L21.4292 29.3339L22.1363 28.6267Q22.3767 28.3864 22.5068 28.0723Q22.6369 27.7582 22.6369 27.4183L22.6369 26.4183L26.6369 26.4183L26.6369 27.4183Q26.6369 28.5539 26.2023 29.603Q25.7677 30.6522 24.9647 31.4552L24.2576 32.1623ZM24.6369 27.4183Q24.6369 26.6805 24.3545 25.9989Q24.0722 25.3173 23.5505 24.7956L24.2576 24.0885L24.9647 24.7956L23.5505 26.2098L22.8434 25.5027L23.5505 24.7956Q24.0722 25.3173 24.3545 25.9989Q24.6369 26.6805 24.6369 27.4183L23.6369 27.4183L23.6369 26.4183L25.6369 26.4183L25.6369 27.4183L24.6369 27.4183ZM26.6369 28.4183L22.6369 28.4183L22.6369 27.4183Q22.6369 27.0783 22.5068 26.7642Q22.3767 26.4502 22.1363 26.2098L21.4292 25.5027L24.2576 22.6743L24.9647 23.3814Q25.7677 24.1843 26.2023 25.2335Q26.6369 26.2827 26.6369 27.4183L26.6369 28.4183ZM23.5505 24.7956Q23.0288 24.2739 22.3472 23.9916Q21.6656 23.7092 20.9278 23.7092L20.9278 22.7092L21.9278 22.7092L21.9278 24.7092L20.9278 24.7092L20.9278 23.7092Q21.6656 23.7092 22.3472 23.9916Q23.0288 24.2739 23.5505 24.7956L22.8434 25.5027L22.1363 24.7956L23.5505 23.3814L24.2576 24.0885L23.5505 24.7956ZM25.6718 24.0885L22.8434 26.9169L22.1363 26.2098Q21.8959 25.9694 21.5819 25.8393Q21.2678 25.7092 20.9278 25.7092L19.9278 25.7092L19.9278 21.7092L20.9278 21.7092Q22.0634 21.7092 23.1126 22.1438Q24.1617 22.5784 24.9647 23.3814L25.6718 24.0885ZM20.9278 23.7092L20.9278 20.0002L21.9278 20.0002L21.9278 21.0002L19.9278 21.0002L19.9278 20.0002L20.9278 20.0002L20.9278 23.7092L19.9278 23.7092L19.9278 22.7092L21.9278 22.7092L21.9278 23.7092L20.9278 23.7092ZM22.9278 24.7092L18.9278 24.7092L18.9278 19.0002L22.9278 19.0002L22.9278 23.7092L22.9278 24.7092ZM20.9278 20.0002Q21.5173 20 21.9987 20.3403L21.4215 21.1569L20.6049 20.5797L21.7592 18.9465L22.5759 19.5236L21.9987 20.3403Q21.5173 20 20.9278 20.0002L20.9276 19.0002L21.9276 18.9999L21.9281 20.9999L20.9281 21.0002L20.9278 20.0002ZM19.9283 22.0004L19.9273 18.0004L20.9273 18.0002Q21.5252 18 22.095 18.181Q22.6648 18.3619 23.153 18.707L23.9697 19.2842L21.6609 22.5507L20.8443 21.9735Q20.8821 22.0002 20.9283 22.0002L19.9283 22.0004ZM21.9987 20.3403Q22.4801 20.6805 22.6766 21.2362L21.7339 21.5697L21.4004 20.627L23.2859 19.96L23.6194 20.9027L22.6766 21.2362Q22.4801 20.6805 21.9987 20.3403L22.5759 19.5236L23.3925 20.1008L22.2381 21.734L21.4215 21.1569L21.9987 20.3403ZM20.0277 21.3963L22.3364 18.1298L23.153 18.707Q23.6413 19.0521 24.002 19.5288Q24.3628 20.0056 24.5621 20.5692L24.8956 21.512L21.1246 22.846L20.7911 21.9032Q20.8066 21.9468 20.8443 21.9735L20.0277 21.3963ZM22.6766 21.2362Q22.7381 21.4101 22.8614 21.5473Q22.9847 21.6845 23.1511 21.7641L22.7198 22.6663L21.8176 22.235L23.1115 19.5284L24.0137 19.9597Q24.2062 20.0517 24.3488 20.2104Q24.4915 20.3691 24.5625 20.5702L24.8955 21.5132L22.0667 22.5121L21.7337 21.5692L22.6766 21.2362ZM20.4578 20.9592L23.2866 19.9603L23.6196 20.9032L22.6766 21.2362Q22.7381 21.4101 22.8614 21.5473Q22.9847 21.6845 23.1511 21.7641L23.5824 20.8619L24.4846 21.2932L23.1907 23.9998L22.2885 23.5685Q21.7631 23.3173 21.3739 22.8843Q20.9847 22.4512 20.7908 21.9022L20.4578 20.9592ZM23.1511 21.7641Q23.3175 21.8436 23.5017 21.8534L23.4485 22.852L22.4499 22.7988L22.6096 19.8031L23.6081 19.8563Q23.8212 19.8676 24.0137 19.9597L24.9159 20.391L23.622 23.0976L22.7198 22.6663L23.1511 21.7641ZM21.3863 23.1372L22.6802 20.4306L23.5824 20.8619L23.1511 21.7641Q23.3175 21.8436 23.5017 21.8534L23.5549 20.8549L24.5535 20.9081L24.3939 23.9038L23.3953 23.8506Q22.8138 23.8196 22.2885 23.5685L21.3863 23.1372ZM23.5017 21.8534Q23.6859 21.8633 23.8598 21.8018L24.1928 22.7448L23.2499 23.0778L22.2509 20.2489L23.1939 19.916Q23.3951 19.8449 23.6081 19.8563L24.6067 19.9095L24.4471 22.9052L23.4485 22.852L23.5017 21.8534ZM22.3967 23.7974L22.5563 20.8016L23.5549 20.8549L23.5017 21.8534Q23.6859 21.8633 23.8598 21.8018L23.5269 20.8589L24.4698 20.5259L25.4687 23.3547L24.5258 23.6877Q23.9767 23.8816 23.3953 23.8506L22.3967 23.7974ZM23.8598 21.8018Q24.0338 21.7404 24.1709 21.6171L24.8394 22.3608L24.0957 23.0293L22.0903 20.7982L22.834 20.1297Q22.9927 19.987 23.1939 19.916L24.1368 19.583L25.1357 22.4118L24.1928 22.7448L23.8598 21.8018ZM23.5829 24.0207L22.5839 21.1919L23.5269 20.8589L23.8599 21.8018Q24.0338 21.7404 24.171 21.6171L23.5025 20.8734L24.2462 20.2049L26.2516 22.4361L25.5079 23.1046Q25.0748 23.4938 24.5258 23.6877L23.5829 24.0207ZM24.1709 21.6171Q24.3081 21.4938 24.3877 21.3274L25.2899 21.7587L24.8586 22.6609L22.1519 21.367L22.5833 20.4647Q22.6753 20.2723 22.834 20.1296L23.5777 19.4612L25.5832 21.6924L24.8394 22.3608L24.1709 21.6171ZM24.7642 23.7731L22.7587 21.5419L23.5025 20.8734L24.1709 21.6171Q24.3081 21.4938 24.3877 21.3274L23.4855 20.8961L23.9168 19.9939L26.6234 21.2878L26.1921 22.19Q25.941 22.7153 25.5079 23.1046L24.7642 23.7731ZM24.3877 21.3274Q24.4673 21.161 24.4771 20.9768L25.4756 21.03L25.4224 22.0286L22.4266 21.8689L22.4799 20.8703Q22.4913 20.6573 22.5833 20.4648L23.0145 19.5626L25.7212 20.8565L25.2899 21.7587L24.3877 21.3274ZM25.7608 23.0922L23.0542 21.7983L23.4855 20.8961L24.3877 21.3273Q24.4672 21.161 24.4771 20.9768L23.4785 20.9236L23.5317 19.925L26.5274 20.0846L26.4742 21.0832Q26.4432 21.6647 26.1921 22.19L25.7608 23.0922ZM24.4771 20.9768Q24.4869 20.7926 24.4255 20.6187L25.3684 20.2857L25.7014 21.2286L22.8726 22.2275L22.5396 21.2846Q22.4686 21.0834 22.4799 20.8704L22.533 19.8718L25.5289 20.0314L25.4756 21.03L24.4771 20.9768ZM26.421 22.0818L23.4253 21.9221L23.4785 20.9236L24.4771 20.9767Q24.4869 20.7926 24.4255 20.6187L23.4825 20.9516L23.1495 20.0087L25.9784 19.0098L26.3113 19.9527Q26.5052 20.5018 26.4742 21.0832L26.421 22.0818ZM19.0733 20.0002Q18.7044 20.0002 18.3636 20.1413Q18.0228 20.2825 17.762 20.5433L17.0549 19.8362L17.762 19.1291L19.1762 20.5433L18.4691 21.2505L17.762 20.5433Q18.0228 20.2825 18.3636 20.1413Q18.7044 20.0002 19.0733 20.0002L19.0733 21.0002L18.0733 21.0002L18.0733 19.0002L19.0733 19.0002L19.0733 20.0002ZM20.0733 18.0002L20.0733 22.0002L19.0733 22.0002Q19.1336 22.0002 19.1762 21.9576L18.4691 22.6647L15.6406 19.8362L16.3477 19.1291Q16.8899 18.587 17.5982 18.2936Q18.3066 18.0002 19.0733 18.0002L20.0733 18.0002ZM17.762 20.5433Q17.5011 20.8042 17.3599 21.145Q17.2188 21.4858 17.2188 21.8547L16.2188 21.8547L16.2188 20.8547L18.2188 20.8547L18.2188 21.8547L17.2188 21.8547Q17.2188 21.4858 17.3599 21.145Q17.5011 20.8042 17.762 20.5433L18.4691 21.2505L17.762 21.9576L16.3477 20.5433L17.0549 19.8362L17.762 20.5433ZM17.0549 18.422L19.8833 21.2505L19.1762 21.9576Q19.2188 21.915 19.2188 21.8547L19.2188 22.8547L15.2188 22.8547L15.2188 21.8547Q15.2188 21.088 15.5122 20.3796Q15.8056 19.6713 16.3477 19.1291L17.0549 18.422ZM17.2188 21.8547Q17.2188 22.2236 17.3599 22.5644Q17.5011 22.9052 17.762 23.166L17.0549 23.8731L16.3477 23.166L17.762 21.7518L18.4691 22.4589L17.762 23.166Q17.5011 22.9052 17.3599 22.5644Q17.2188 22.2236 17.2188 21.8547L18.2188 21.8547L18.2188 22.8547L16.2188 22.8547L16.2188 21.8547L17.2188 21.8547ZM15.2188 20.8547L19.2188 20.8547L19.2188 21.8547Q19.2188 21.7944 19.1762 21.7518L19.8833 22.4589L17.0549 25.2874L16.3477 24.5803Q15.8056 24.0381 15.5122 23.3298Q15.2188 22.6214 15.2188 21.8547L15.2188 20.8547ZM17.762 23.166Q18.0228 23.4269 18.3636 23.5681Q18.7044 23.7092 19.0733 23.7092L19.0733 24.7092L18.0733 24.7092L18.0733 22.7092L19.0733 22.7092L19.0733 23.7092Q18.7044 23.7092 18.3636 23.5681Q18.0228 23.4269 17.762 23.166L18.4691 22.4589L19.1762 23.166L17.762 24.5803L17.0549 23.8731L17.762 23.166ZM15.6406 23.8731L18.4691 21.0447L19.1762 21.7518Q19.1336 21.7092 19.0733 21.7092L20.0733 21.7092L20.0733 25.7092L19.0733 25.7092Q18.3066 25.7092 17.5982 25.4158Q16.8899 25.1224 16.3477 24.5803L15.6406 23.8731ZM19.0733 23.7092L19.0733 20.0002L20.0733 20.0002L20.0733 21.0002L18.0733 21.0002L18.0733 20.0002L19.0733 20.0002L19.0733 23.7092L18.0733 23.7092L18.0733 22.7092L20.0733 22.7092L20.0733 23.7092L19.0733 23.7092ZM21.0733 24.7092L17.0733 24.7092L17.0733 19.0002L21.0733 19.0002L21.0733 23.7092L21.0733 24.7092ZM20.9278 29.2728Q21.2967 29.2728 21.6375 29.1316Q21.9783 28.9905 22.2392 28.7296L22.9463 29.4367L22.2392 30.1438L20.825 28.7296L21.5321 28.0225L22.2392 28.7296Q21.9783 28.9905 21.6375 29.1316Q21.2967 29.2728 20.9278 29.2728L20.9278 28.2728L21.9278 28.2728L21.9278 30.2728L20.9278 30.2728L20.9278 29.2728ZM19.9278 31.2728L19.9278 27.2728L20.9278 27.2728Q20.8676 27.2728 20.825 27.3154L21.5321 26.6083L24.3605 29.4367L23.6534 30.1438Q23.1112 30.686 22.4029 30.9794Q21.6945 31.2728 20.9278 31.2728L19.9278 31.2728ZM22.2392 28.7296Q22.5 28.4688 22.6412 28.128Q22.7824 27.7872 22.7824 27.4183L23.7824 27.4183L23.7824 28.4183L21.7824 28.4183L21.7824 27.4183L22.7824 27.4183Q22.7824 27.7872 22.6412 28.128Q22.5 28.4688 22.2392 28.7296L21.5321 28.0225L22.2392 27.3154L23.6534 28.7296L22.9463 29.4367L22.2392 28.7296ZM22.9463 30.8509L20.1179 28.0225L20.825 27.3154Q20.7824 27.358 20.7824 27.4183L20.7824 26.4183L24.7824 26.4183L24.7824 27.4183Q24.7824 28.185 24.4889 28.8933Q24.1955 29.6017 23.6534 30.1438L22.9463 30.8509ZM22.7824 27.4183Q22.7824 27.0494 22.6412 26.7086Q22.5 26.3678 22.2392 26.1069L22.9463 25.3998L23.6534 26.1069L22.2392 27.5211L21.5321 26.814L22.2392 26.1069Q22.5 26.3678 22.6412 26.7086Q22.7824 27.0494 22.7824 27.4183L21.7824 27.4183L21.7824 26.4183L23.7824 26.4183L23.7824 27.4183L22.7824 27.4183ZM24.7824 28.4183L20.7824 28.4183L20.7824 27.4183Q20.7824 27.4785 20.825 27.5211L20.1179 26.814L22.9463 23.9856L23.6534 24.6927Q24.1955 25.2349 24.4889 25.9432Q24.7824 26.6516 24.7824 27.4183L24.7824 28.4183ZM22.2392 26.1069Q21.9783 25.8461 21.6375 25.7049Q21.2967 25.5637 20.9278 25.5637L20.9278 24.5637L21.9278 24.5637L21.9278 26.5637L20.9278 26.5637L20.9278 25.5637Q21.2967 25.5637 21.6375 25.7049Q21.9783 25.8461 22.2392 26.1069L21.5321 26.814L20.825 26.1069L22.2392 24.6927L22.9463 25.3998L22.2392 26.1069ZM24.3605 25.3998L21.5321 28.2282L20.825 27.5211Q20.8676 27.5637 20.9278 27.5637L19.9278 27.5637L19.9278 23.5637L20.9278 23.5637Q21.6945 23.5637 22.4029 23.8572Q23.1112 24.1506 23.6534 24.6927L24.3605 25.3998ZM20.9278 25.5637L20.9278 29.2728L19.9278 29.2728L19.9278 28.2728L21.9278 28.2728L21.9278 29.2728L20.9278 29.2728L20.9278 25.5637L21.9278 25.5637L21.9278 26.5637L19.9278 26.5637L19.9278 25.5637L20.9278 25.5637ZM18.9278 24.5637L22.9278 24.5637L22.9278 30.2728L18.9278 30.2728L18.9278 25.5637L18.9278 24.5637Z" fill="rgb(249.688,249.688,249.688)" fill-rule="nonzero" />
		<path id="Vector" d="M9.94218 5.7398C12.2177 4.62616 15.9508 3.30945 20.0364 3.30945C24.0366 3.30945 27.6714 4.57145 29.9349 5.67026L30.0628 5.73238C30.7453 6.06991 31.2961 6.38889 31.6837 6.64759L28.2584 11.6548C36.1549 19.7275 42.2545 36.6881 20.0364 36.6881C-2.18177 36.6881 3.75364 20.0354 11.7188 11.6548L8.31576 6.64759C8.57818 6.47605 8.91107 6.27669 9.30793 6.06527C9.50451 5.95956 9.71593 5.85107 9.94218 5.74073L9.94218 5.7398ZM26.0571 11.588L28.799 7.57949C26.249 7.76309 23.215 8.3621 20.2941 9.20776C18.2078 9.81048 15.8896 9.71868 13.743 9.32274C13.2021 9.22246 12.6649 9.10307 12.1324 8.96482L13.9127 11.5862C17.7284 12.9446 22.2405 12.9446 26.0571 11.588L26.0571 11.588ZM12.8417 13.1662C17.3065 14.8909 22.6726 14.8909 27.1373 13.1644C29.001 15.129 30.56 17.3615 31.7625 19.7878C33.0162 22.3452 33.6986 24.9017 33.5874 27.1048C33.4798 29.2311 32.6434 31.0476 30.7332 32.3977C28.7424 33.8043 25.3941 34.8336 20.0354 34.8336C14.6712 34.8336 11.3071 33.8219 9.29774 32.431C7.37367 31.0976 6.52893 29.3062 6.40931 27.2087C6.28413 25.0296 6.95176 22.4861 8.20078 19.9111C9.39231 17.4558 11.0549 15.0922 12.8417 13.1662L12.8417 13.1662ZM11.7754 6.94061C12.5172 7.16129 13.2924 7.35324 14.0787 7.49882C16.0723 7.86601 18.0715 7.91979 19.7776 7.42556C21.7659 6.84634 23.7881 6.3908 25.8327 6.06156C24.1265 5.54786 22.131 5.16397 20.0354 5.16397C16.841 5.16397 13.8617 6.05507 11.7754 6.94061L11.7754 6.94061Z" fill="rgb(249.688,249.688,249.688)" fill-rule="evenodd" />
		<path id="Vector" d="M9.04398 6.17939L8.60439 5.28118L9.5026 4.8416L9.94218 5.7398L9.38177 6.01407L8.94218 5.11587L9.94218 5.11587L9.94218 5.7398L8.94218 5.7398L8.94218 4.7398L9.94218 4.7398L9.94218 5.7398L9.04398 6.17939ZM11.5449 6.7398L7.94218 6.7398L7.94218 4.49194L9.96121 3.50381L10.8404 5.30022L11.5449 6.7398ZM29.0353 5.2335L29.472 4.33392L30.3716 4.77068L29.9403 5.67286L29.9402 5.67284L30.3716 4.77066L31.2712 5.20737L30.8345 6.10697L29.0353 5.2335ZM30.8345 6.10701L29.9349 5.67026L29.0353 5.23354L29.9061 3.43968L31.7106 4.30244L30.8345 6.10701ZM29.1665 5.28907L29.6098 4.39268L30.5062 4.83599L30.0694 5.73559L30.0629 5.7324L30.4996 4.8328L31.3992 5.26956L30.9624 6.16914L29.1665 5.28907ZM30.9592 6.1757L30.0628 5.73238L29.1633 5.29563L30.0367 3.49651L31.8491 4.37632L30.9592 6.1757ZM32.2483 5.82223L33.0737 6.38684L32.509 7.2122L31.6837 6.64759L32.2548 5.81277L33.0801 6.37737L32.525 7.20912L31.6837 6.64759L32.2388 5.81585L33.0706 6.37101L32.5154 7.20275L31.6837 6.64759L32.2483 5.82223ZM30.3031 6.91474L31.9623 4.42894L34.4766 6.10715L32.7698 8.60217L31.1191 7.47295L30.3031 6.91474ZM27.6938 12.4802L26.8684 11.9156L27.433 11.0902L28.2584 11.6548L27.7951 12.3321L26.9697 11.7675L27.6846 11.0682L28.2584 11.6548L27.5435 12.3541L26.8443 11.6392L27.5591 10.9399L28.2584 11.6548L27.6938 12.4802ZM29.8288 11.5175L27.5279 13.7682L25.6811 11.8801L27.1723 9.70023L28.823 10.8294L29.8288 11.5175ZM12.4077 10.93L13.1326 11.6189L12.4437 12.3437L11.7188 11.6548L12.2742 11.0705L12.999 11.7594L12.1719 12.3215L11.7188 11.6548L12.5459 11.0927L13.108 11.9198L12.2809 12.4819L11.7188 11.6548L12.4077 10.93ZM10.1307 11.525L12.8109 9.70353L14.2792 11.864L12.4796 13.7575L11.0299 12.3796L10.1307 11.525ZM7.47874 7.19476L6.93157 6.35774L7.76859 5.81057L8.31576 6.64759L7.46359 7.20467L6.91642 6.36765L7.74349 5.80555L8.31576 6.64759L7.4887 7.20969L6.92659 6.38262L7.75366 5.82052L8.31576 6.64759L7.47874 7.19476ZM9.69022 6.92256L7.22373 8.59886L5.51707 6.0877L8.05845 4.42638L9.15279 6.10042L9.69022 6.92256ZM10.1905 5.59511L10.6607 6.4777L9.7781 6.94786L9.30452 6.06711L9.30796 6.06526L9.78154 6.94601L8.9008 7.41961L8.4272 6.53887L10.1905 5.59511ZM8.42535 6.53543L9.30793 6.06527L10.1887 5.59167L11.1359 7.35317L9.3675 8.30403L8.42535 6.53543ZM10.841 5.30238L11.2793 6.20118L10.3805 6.63953L9.94218 5.74073L10.5038 5.46681L10.9422 6.36561L9.94218 6.36561L9.94218 5.74073L10.9422 5.74073L10.9422 6.74073L9.94218 6.74073L9.94218 5.74073L10.841 5.30238ZM8.34189 4.74073L11.9422 4.74073L11.9422 6.9905L9.92008 7.97669L9.04338 6.17908L8.34189 4.74073ZM29.3635 6.75411L30.1889 7.31868L29.6244 8.14406L28.799 7.57949L29.9692 5.86864L30.7946 6.43321L30.8664 7.43063L28.799 7.57949L28.7272 6.58207L29.7246 6.51026L29.7964 7.50767L28.799 7.57949L29.3635 6.75411ZM27.8362 8.1325L27.6579 5.65647L32.7902 5.28694L29.8852 9.53402L28.2344 8.40487L27.8362 8.1325ZM21.2548 8.93022L21.5324 9.89094L20.5717 10.1685L20.2942 9.20775L20.2947 9.20759L20.5722 10.1683L19.6117 10.4464L19.3336 9.48586L21.2548 8.93022ZM19.3334 9.4853L20.2941 9.20776L21.2547 8.92966L21.8111 10.8514L19.8885 11.4067L19.3334 9.4853ZM14.7263 9.50503L14.544 10.4883L13.5607 10.306L13.7424 9.32263L13.7433 9.3228L13.5616 10.3062L12.5782 10.1248L12.7596 9.14135L14.7263 9.50503ZM12.7598 9.14046L13.743 9.32274L14.7264 9.50413L14.3636 11.4713L12.3951 11.1075L12.7598 9.14046ZM11.1645 8.71351L11.4158 7.74561L12.3837 7.99691L12.1324 8.96482L9.56154 8.29734L9.81285 7.32943L10.6401 6.76759L12.1324 8.96482L11.3051 9.52666L10.7433 8.69941L11.5705 8.13757L12.1324 8.96482L11.1645 8.71351ZM13.0057 9.58054L11.0397 10.9157L7.49332 5.69404L13.6029 7.28031L13.1003 9.21612L13.0057 9.58054ZM14.4746 12.4134L13.6473 12.9753L13.0855 12.148L13.9127 11.5862L14.0965 11.8567L13.2692 12.4186L13.6046 11.4765L13.9127 11.5862L13.5773 12.5283L12.6352 12.1929L12.9706 11.2508L13.9127 11.5862L14.4746 12.4134ZM15.8803 9.04104L14.184 13.8057L12.6257 13.251L11.6964 11.8826L13.3509 10.7589L15.8803 9.04104ZM26.4491 12.4389L27.1746 11.7507L27.8628 12.4762L27.1373 13.1644L26.6761 12.6782L27.4016 11.99L27.7623 12.9227L27.1373 13.1644L26.7766 12.2317L27.7093 11.871L28.07 12.8037L27.1373 13.1644L26.4491 12.4389ZM26.7429 14.9169L25.4833 11.6597L27.666 10.8156L29.2765 12.5134L27.8256 13.8899L26.7429 14.9169ZM31.3223 18.8899L32.2203 18.4497L32.6604 19.3476L31.7645 19.7919L31.7626 19.788L32.6585 19.3438L33.1026 20.2397L32.2066 20.6838L31.3223 18.8899ZM32.2027 20.6857L31.7625 19.7878L31.3184 18.8918L33.1103 18.0038L34.0026 19.8034L32.2027 20.6857ZM33.6379 26.1061L34.6366 26.1566L34.5861 27.1554L33.5871 27.11L33.5871 27.1099L34.5861 27.1553L34.5356 28.154L33.5369 28.1036L33.6379 26.1061ZM33.5368 28.1036L33.5874 27.1048L33.6378 26.1061L35.6302 26.2067L35.5394 28.2049L33.5368 28.1036ZM31.5499 31.8206L32.127 32.6373L31.3103 33.2144L30.7326 32.3981L30.7328 32.398L31.3104 33.2143L30.4938 33.7914L29.9166 32.9748L31.5499 31.8206ZM29.9165 32.9747L30.7332 32.3977L31.5499 31.8205L32.7039 33.4532L31.0711 34.6087L29.9165 32.9747ZM10.1197 33.0006L9.55005 33.8226L8.72813 33.253L9.29838 32.4315L9.29883 32.4318L8.72858 33.2533L7.90635 32.6841L8.4755 31.8619L10.1197 33.0006ZM8.47581 31.8614L9.29774 32.431L10.12 33.0002L8.98091 34.6457L7.33706 33.5046L8.47581 31.8614ZM6.35238 26.2103L7.35076 26.1534L7.40769 27.1518L6.40937 27.2096L6.40934 27.2092L7.40767 27.1513L7.46502 28.1497L6.46667 28.207L6.35238 26.2103ZM6.46625 28.2071L6.40931 27.2087L6.35196 26.2103L8.34821 26.0957L8.46389 28.0931L6.46625 28.2071ZM7.7642 20.8108L6.86454 20.3742L7.30112 19.4746L8.20196 19.9087L8.20189 19.9089L7.30104 19.4747L7.73747 18.575L8.63721 19.0114L7.7642 20.8108ZM8.63737 19.0115L8.20078 19.9111L7.76436 20.8109L5.96716 19.9391L6.83559 18.1371L8.63737 19.0115ZM15.062 7.68086L14.8799 8.66415L13.8966 8.48211L14.0778 7.49864L14.0787 7.49881L13.8976 8.48227L12.9141 8.30114L13.0952 7.31768L15.062 7.68086ZM13.0954 7.31677L14.0787 7.49882L15.0622 7.67996L14.6999 9.64684L12.7311 9.28429L13.0954 7.31677ZM20.7382 7.14733L21.0164 8.10784L20.0559 8.38608L19.7763 7.42595L19.7778 7.42553L20.0573 8.38565L19.0973 8.66535L18.8176 7.70526L20.7382 7.14733ZM18.8171 7.7038L19.7776 7.42556L20.7377 7.14587L21.2972 9.06618L19.374 9.62616L18.8171 7.7038ZM26.82 5.90258L26.9789 6.88986L25.9917 7.04884L24.9939 6.9825L25.1232 5.03768L26.121 5.10402L27.0785 5.39232L26.7902 6.34986L25.8327 6.06156L26.82 5.90258ZM24.8088 5.99348L25.1634 4.81572L27.1188 5.17037L26.9895 7.11519L25.0044 7.20783L24.8454 6.22055L24.8088 5.99348ZM9.94218 5.7398Q11.9981 4.73363 14.3105 4.10701Q17.2538 3.30945 20.0364 3.30945L20.0364 4.30945L19.0364 4.30945L19.0364 2.30945L20.0364 2.30945L20.0364 3.30945Q17.2535 3.30945 14.3105 4.10701Q11.9979 4.73373 9.94218 5.7398L9.5026 4.8416L10.4008 4.40202L11.28 6.19842L10.3818 6.638L9.94218 5.7398ZM9.92315 7.97579L8.16481 4.38298L9.06301 3.9434Q11.2903 2.85334 13.7874 2.17664Q16.9873 1.30945 20.0364 1.30945L21.0364 1.30945L21.0364 5.30945L20.0364 5.30945Q17.5199 5.30945 14.8336 6.03739Q12.7056 6.61403 10.8214 7.5362L9.92315 7.97579ZM20.0364 3.30945Q22.7665 3.30945 25.6369 4.0778Q27.9054 4.68505 29.9349 5.67026L29.4982 6.56986L28.5986 6.13314L29.472 4.33394L30.3716 4.77066L29.9349 5.67026Q27.9056 4.68516 25.6369 4.0778Q22.7668 3.30945 20.0364 3.30945L20.0364 2.30945L21.0364 2.30945L21.0364 4.30945L20.0364 4.30945L20.0364 3.30945ZM19.0364 5.30945L19.0364 1.30945L20.0364 1.30945Q23.0298 1.30945 26.1541 2.14583Q28.6073 2.80257 30.8083 3.87106L31.7079 4.30777L29.961 7.90617L29.0614 7.46945Q27.2038 6.56764 25.1197 6.00978Q22.5035 5.30945 20.0364 5.30945L19.0364 5.30945ZM29.9349 5.67026L30.0628 5.73238L29.6261 6.63196L28.7265 6.19521L29.6 4.39605L30.4996 4.8328L30.0628 5.73238L29.9349 5.67026L30.3716 4.77068L31.2712 5.20743L30.3977 7.00659L29.4981 6.56984L29.9349 5.67026ZM28.1618 7.03266L29.9088 3.43434L31.8359 4.36998L30.0889 7.9683L29.0614 7.46942L28.1618 7.03266ZM30.0628 5.73238Q31.0267 6.20908 31.6837 6.64759L31.1285 7.47933L30.2968 6.92418L31.4071 5.26069L32.2388 5.81585L31.6837 6.64759Q31.0267 6.20908 30.0628 5.73238L30.5061 4.83602L31.4025 5.27933L30.5159 7.07206L29.6195 6.62875L30.0628 5.73238ZM28.2798 7.08181L30.0531 3.49634L30.9495 3.93965Q32.0294 4.47373 32.794 4.9841L33.6257 5.53926L31.4051 8.86624L30.5734 8.31108Q30.024 7.94443 29.1762 7.52512L28.2798 7.08181ZM31.6837 6.64759L28.2584 11.6548L27.433 11.0902L27.9976 10.2648L29.6483 11.3941L29.0837 12.2194L28.2584 11.6548L31.6837 6.64759L32.509 7.2122L31.9444 8.03756L30.2937 6.90834L30.8583 6.08298L31.6837 6.64759ZM30.5976 4.69302L33.899 6.95145L29.3445 13.6094L26.0431 11.351L30.033 5.51838L30.5976 4.69302ZM28.2584 11.6548Q29.7681 13.1982 31.0836 15.0482Q32.4458 16.964 33.4295 18.9719Q34.4714 21.0987 34.9853 23.1231Q35.5366 25.2944 35.4404 27.1987Q35.3366 29.2517 34.4837 30.8962Q33.5642 32.6689 31.8048 33.9119Q29.9144 35.2474 27.0926 35.9435Q24.0746 36.6881 20.0364 36.6881L20.0364 35.6881L21.0364 35.6881L21.0364 37.6881L20.0364 37.6881L20.0364 36.6881Q24.0735 36.6881 27.0926 35.9435Q29.9138 35.2478 31.8048 33.9119Q33.5659 32.6676 34.4837 30.8961Q35.3367 29.2496 35.4404 27.1987Q35.5366 25.2941 34.9853 23.1231Q34.4712 21.0983 33.4295 18.9719Q32.4457 16.9639 31.0836 15.0482Q29.7681 13.1982 28.2584 11.6548L28.9732 10.9555L29.6725 11.6704L28.2428 13.0689L27.5435 12.3541L28.2584 11.6548ZM26.1294 12.3385L28.9888 9.54141L29.6881 10.2563Q31.3073 11.9116 32.7135 13.8892Q34.1701 15.9377 35.2255 18.092Q36.3586 20.4049 36.9238 22.6309Q37.5493 25.0941 37.4378 27.2997Q37.3123 29.7841 36.2595 31.8161Q35.1177 34.0201 32.9588 35.5453Q28.5103 38.6881 20.0364 38.6881L19.0364 38.6881L19.0364 34.6881L20.0364 34.6881Q23.8315 34.6881 26.6136 34.0018Q29.0687 33.3961 30.6507 32.2784Q32.0128 31.3161 32.7083 29.9753Q33.3611 28.7167 33.4429 27.0978Q33.524 25.4945 33.0468 23.6153Q32.584 21.7921 31.6334 19.8518Q30.7214 17.9902 29.4536 16.2072Q28.2289 14.4848 26.8287 13.0533L26.1294 12.3385ZM20.0364 36.6881Q15.996 36.6881 12.9732 35.9562Q10.1435 35.271 8.24336 33.9552Q6.47246 32.7288 5.54073 30.9773Q4.6752 29.3503 4.55885 27.3142Q4.45081 25.4236 4.99192 23.2584Q5.4965 21.2393 6.5337 19.1018Q7.5117 17.0863 8.87804 15.1366Q10.1931 13.2601 11.7188 11.6548L12.4437 12.3437L11.7547 13.0686L10.3051 11.6907L10.994 10.9659L11.7188 11.6548Q10.1932 13.26 8.87804 15.1366Q7.51172 17.0862 6.5337 19.1018Q5.49667 21.239 4.99192 23.2584Q4.45079 25.4233 4.55885 27.3142Q4.67509 29.3484 5.54071 30.9773Q6.47089 32.7277 8.24337 33.9552Q10.144 35.2713 12.9732 35.9562Q15.9969 36.6881 20.0364 36.6881L20.0364 37.6881L19.0364 37.6881L19.0364 35.6881L20.0364 35.6881L20.0364 36.6881ZM21.0364 34.6881L21.0364 38.6881L20.0364 38.6881Q11.5649 38.6881 7.10473 35.5994Q4.93278 34.0953 3.77459 31.9158Q2.70335 29.9 2.5621 27.4283Q2.43669 25.2335 3.05161 22.7734Q3.60669 20.5527 4.73434 18.2287Q5.78215 16.0693 7.2402 13.9888Q8.64084 11.9902 10.2691 10.277L10.958 9.55213L13.8574 12.3078L13.1685 13.0326Q11.7455 14.5299 10.5159 16.2844Q9.24128 18.1032 8.33306 19.9749Q7.38649 21.9257 6.93224 23.7433Q6.46491 25.6132 6.55559 27.2001Q6.64692 28.7983 7.30644 30.038Q8.01018 31.3609 9.382 32.3109Q10.976 33.4148 13.4439 34.0123Q16.2347 34.6881 20.0364 34.6881L21.0364 34.6881ZM11.7188 11.6548L8.31576 6.64759L9.14283 6.08549L9.70493 6.91256L8.0508 8.03676L7.4887 7.20969L8.31576 6.64759L11.7188 11.6548L10.8917 12.2169L10.3296 11.3898L11.9838 10.2656L12.5459 11.0927L11.7188 11.6548ZM13.9351 11.3577L10.6268 13.6061L6.09953 6.94472L9.4078 4.69632L13.373 10.5306L13.9351 11.3577ZM8.31577 6.64759Q8.76025 6.35703 9.30793 6.06527L9.77809 6.94785L8.89551 7.41801L7.95519 5.65285L8.83777 5.18269L9.30793 6.06527Q8.76024 6.35703 8.31576 6.64759L7.76859 5.81057L8.60562 5.2634L9.69996 6.93744L8.86293 7.48461L8.31577 6.64759ZM8.57308 8.8688L6.3844 5.52072L7.22143 4.97355Q7.74088 4.63398 8.36761 4.30011L9.2502 3.82995L11.1308 7.36027L10.2483 7.83043Q9.77962 8.08008 9.4101 8.32163L8.57308 8.8688ZM9.30793 6.06527Q9.61208 5.90172 9.94218 5.74073L10.3805 6.63953L9.48173 7.07788L8.60503 5.28028L9.50383 4.84192L9.94218 5.74073Q9.61207 5.90172 9.30793 6.06527L8.83433 5.18453L9.71507 4.71093L10.6623 6.4724L9.78154 6.94601L9.30793 6.06527ZM9.3744 8.30035L7.47999 4.7774L8.36073 4.30379Q8.69976 4.12148 9.06548 3.94312L9.96428 3.50477L11.7177 7.09998L10.8189 7.53834Q10.5244 7.68196 10.2551 7.82675L9.3744 8.30035ZM9.94218 5.74073L9.94218 5.7398L10.9422 5.7398L10.9422 6.7398L8.94218 6.7398L8.94218 5.7398L9.94218 5.7398L9.94218 5.74073L8.94218 5.74073L8.94218 4.74073L10.9422 4.74073L10.9422 5.74073L9.94218 5.74073ZM11.9422 6.74073L7.94218 6.74073L7.94218 4.7398L11.9422 4.7398L11.9422 5.74073L11.9422 6.74073ZM26.0571 11.588L28.799 7.57949L29.6244 8.14406L29.0598 8.96944L27.409 7.8403L27.9736 7.01491L28.799 7.57949L26.0571 11.588L25.2317 11.0235L25.7963 10.1981L27.447 11.3272L26.8824 12.1526L26.0571 11.588ZM27.1433 13.5426L23.8417 11.2843L27.7128 5.62496L31.0143 7.88326L27.7078 12.7172L27.1433 13.5426ZM28.799 7.57949Q26.9142 7.71519 24.6856 8.14535Q22.5195 8.56347 20.2941 9.20776L20.016 8.24721L20.9766 7.96911L21.5328 9.89021L20.5722 10.1683L20.2941 9.20776Q22.5194 8.56349 24.6856 8.14535Q26.9141 7.7152 28.799 7.57949L28.8708 8.57691L27.8734 8.64872L27.7297 6.65388L28.7272 6.58207L28.799 7.57949ZM29.6528 5.51284L29.94 9.50251L28.9426 9.57432Q27.1764 9.70149 25.0647 10.1091Q22.988 10.51 20.8503 11.1289L19.8898 11.407L18.7774 7.56476L19.7379 7.28666Q22.0509 6.617 24.3066 6.1816Q26.6519 5.7289 28.6553 5.58465L29.6528 5.51284ZM20.2941 9.20776Q18.8148 9.63512 17.0412 9.63975Q15.4838 9.64382 13.743 9.32274L13.9244 8.33933L14.9078 8.52072L14.545 10.4875L13.5616 10.3062L13.743 9.32274Q15.4838 9.64382 17.0412 9.63975Q18.8148 9.63511 20.2941 9.20776L20.5717 10.1685L19.611 10.446L19.0559 8.52459L20.0166 8.24705L20.2941 9.20776ZM20.6998 7.00879L21.8099 10.8516L20.8492 11.1292Q19.1005 11.6344 17.0464 11.6397Q15.3035 11.6443 13.3802 11.2896L12.3968 11.1082L13.1224 7.17453L14.1058 7.35592Q15.6641 7.64334 17.036 7.63976Q18.5292 7.63586 19.7391 7.28633L20.6998 7.00879ZM13.743 9.32274Q12.9314 9.17227 12.1324 8.96482L12.3837 7.99691L13.3516 8.24821L12.849 10.184L11.8811 9.93273L12.1324 8.96482Q12.9314 9.17227 13.743 9.32274L13.5607 10.306L12.5775 10.1237L12.9421 8.15721L13.9253 8.33949L13.743 9.32274ZM15.0908 7.53853L14.3617 11.4715L13.3785 11.2892Q12.4972 11.1259 11.6298 10.9006L10.6619 10.6493L11.6671 6.7777L12.635 7.029Q13.3655 7.21867 14.1076 7.35625L15.0908 7.53853ZM12.1324 8.96482L13.9127 11.5862L13.0855 12.148L12.5236 11.3208L14.1781 10.1971L14.74 11.0243L13.9127 11.5862L12.1324 8.96482L12.9596 8.40298L13.5215 9.23023L11.867 10.3539L11.3051 9.52666L12.1324 8.96482ZM9.91604 9.26125L13.225 7.0139L16.129 11.2898L12.8201 13.5371L10.4779 10.0885L9.91604 9.26125ZM13.9127 11.5862Q15.3316 12.0913 16.8783 12.3495Q18.4095 12.6051 19.9845 12.6052Q21.5594 12.6054 23.0909 12.3503Q24.6377 12.0925 26.0571 11.588L26.392 12.5303L25.4497 12.8652L24.7799 10.9807L25.7221 10.6458L26.0571 11.588Q24.6327 12.0943 23.0804 12.352Q21.554 12.6054 19.9845 12.6052Q18.4149 12.6051 16.8888 12.3513Q15.3366 12.0931 13.9127 11.5862L14.2481 10.6441L15.1902 10.9795L14.5194 12.8637L13.5773 12.5283L13.9127 11.5862ZM12.2999 13.1349L13.6414 9.36664L14.5835 9.70203Q15.84 10.1494 17.217 10.3784Q18.5802 10.6051 19.9848 10.6052Q21.3893 10.6054 22.7529 10.379Q24.13 10.1504 25.3872 9.70354L26.3295 9.36863L27.6691 13.1376L26.7269 13.4725Q25.1409 14.0363 23.4196 14.3231Q21.7248 14.6054 19.9843 14.6052Q18.2436 14.6051 16.5491 14.3222Q14.8276 14.0349 13.2419 13.4703L12.2999 13.1349ZM12.8417 13.1662Q14.5012 13.8073 16.3256 14.1354Q18.1294 14.4597 19.9895 14.4595Q21.8498 14.4594 23.6534 14.1346Q25.478 13.8061 27.1373 13.1644L27.498 14.0971L26.5653 14.4578L25.844 12.5924L26.7766 12.2317L27.1373 13.1644Q25.4724 13.8082 23.6418 14.1367Q21.8439 14.4594 19.9895 14.4595Q18.1354 14.4597 16.3372 14.1375Q14.5068 13.8094 12.8417 13.1662L13.2021 12.2334L14.1349 12.5938L13.4142 14.4594L12.4814 14.0991L12.8417 13.1662ZM11.1882 14.6715L12.6296 10.9403L13.5624 11.3006Q15.0485 11.8746 16.69 12.1688Q18.3131 12.4597 19.9893 12.4595Q21.6657 12.4594 23.2886 12.1682Q24.9302 11.8736 26.416 11.299L27.3487 10.9383L28.7914 14.6691L27.8587 15.0298Q26.0208 15.7405 24.0079 16.1029Q22.0285 16.4593 19.9897 16.4595Q17.9511 16.4597 15.9717 16.1038Q13.959 15.7419 12.121 15.0319L11.1882 14.6715ZM27.1373 13.1644Q29.9486 16.1279 31.7625 19.7878L30.8665 20.2319L30.4224 19.3359L32.2144 18.4478L32.6585 19.3438L31.7625 19.7878Q29.9486 16.1279 27.1373 13.1644L27.8628 12.4762L28.551 13.2017L27.1001 14.5781L26.4118 13.8526L27.1373 13.1644ZM24.9981 13.8154L27.9001 11.0624L28.5883 11.7879Q31.6068 14.9699 33.5545 18.8997L33.9986 19.7957L30.4146 21.5719L29.9705 20.6759Q28.2903 17.2858 25.6863 14.5408L24.9981 13.8154ZM31.7625 19.7878Q32.7201 21.7412 33.1868 23.5792Q33.6694 25.4799 33.5874 27.1048L32.5886 27.0544L32.6391 26.0557L34.6365 26.1566L34.5861 27.1553L33.5874 27.1048Q33.6694 25.4796 33.1868 23.5792Q32.7199 21.7409 31.7625 19.7878L32.6604 19.3476L33.1006 20.2456L31.3048 21.1259L30.8646 20.228L31.7625 19.7878ZM29.5265 19.7702L33.1182 18.0096L33.5583 18.9075Q34.6072 21.0472 35.1252 23.0869Q35.6821 25.2795 35.5848 27.2057L35.5344 28.2045L31.5395 28.0027L31.5899 27.004Q31.6568 25.68 31.2483 24.0714Q30.8328 22.4349 29.9667 20.6682L29.5265 19.7702ZM33.5874 27.1048Q33.5037 28.7576 32.8361 30.0426Q32.1228 31.4155 30.7332 32.3977L30.1561 31.581L30.9727 31.0039L32.127 32.6371L31.3104 33.2143L30.7332 32.3977Q32.1245 31.4143 32.8362 30.0425Q33.5039 28.7555 33.5874 27.1048L34.5861 27.1554L34.5356 28.1541L32.5381 28.053L32.5886 27.0543L33.5874 27.1048ZM31.6404 26.0051L35.6353 26.2072L35.5848 27.2059Q35.4793 29.2906 34.6115 30.9635Q33.6759 32.7669 31.8876 34.0309L31.071 34.6081L28.7623 31.3416L29.5789 30.7644Q30.5719 30.0625 31.0614 29.1205Q31.5283 28.2218 31.5899 27.0038L31.6404 26.0051ZM30.7332 32.3976Q29.1299 33.5305 26.6473 34.1431Q23.8491 34.8336 20.0354 34.8336L20.0354 33.8336L21.0354 33.8336L21.0354 35.8336L20.0354 35.8336L20.0354 34.8336Q23.8479 34.8336 26.6473 34.1431Q29.1294 33.5309 30.7332 32.3976L31.3103 33.2144L30.4936 33.7914L29.3395 32.158L30.1562 31.5809L30.7332 32.3976ZM30.3958 30.1872L32.7041 33.454L31.8874 34.0311Q29.975 35.3822 27.1263 36.0849Q24.0909 36.8336 20.0354 36.8336L19.0354 36.8336L19.0354 32.8336L20.0354 32.8336Q23.6059 32.8336 26.1682 32.2013Q28.2842 31.6792 29.5791 30.7642L30.3958 30.1872ZM20.0354 34.8336Q16.2153 34.8336 13.4085 34.1539Q10.914 33.5498 9.29773 32.431L9.86689 31.6088L10.6891 32.1779L9.55082 33.8224L8.72858 33.2533L9.29773 32.431Q10.9145 33.5501 13.4085 34.1539Q16.2163 34.8336 20.0354 34.8336L20.0354 35.8336L19.0354 35.8336L19.0354 33.8336L20.0354 33.8336L20.0354 34.8336ZM21.0354 32.8336L21.0354 36.8336L20.0354 36.8336Q15.9777 36.8336 12.9379 36.0977Q10.0822 35.4064 8.15943 34.0755L7.3372 33.5063L9.6138 30.2174L10.436 30.7866Q11.7464 31.6936 13.8792 32.2101Q16.4541 32.8336 20.0354 32.8336L21.0354 32.8336ZM9.29774 32.431Q7.89866 31.4615 7.177 30.1067Q6.50235 28.8401 6.40931 27.2087L7.40769 27.1518L7.46463 28.1501L5.46787 28.264L5.41094 27.2656L6.40931 27.2087Q6.50224 28.8382 7.17697 30.1066Q7.89713 31.4604 9.29773 32.431L8.72813 33.253L7.90621 32.6833L9.04541 31.0395L9.86734 31.6091L9.29774 32.431ZM11.2589 31.3568L8.98045 34.6445L8.15853 34.0749Q6.35923 32.8279 5.41125 31.0459Q4.53047 29.3901 4.41256 27.3226L4.35562 26.3242L8.34913 26.0964L8.40607 27.0948Q8.47409 28.2876 8.9422 29.1664Q9.43607 30.0936 10.4369 30.7872L11.2589 31.3568ZM6.40931 27.2087Q6.31694 25.6006 6.78972 23.7084Q7.2474 21.8767 8.20078 19.9111L9.10052 20.3476L8.6641 21.2473L6.86462 20.3745L7.30104 19.4747L8.20078 19.9111Q7.24757 21.8763 6.78972 23.7084Q6.31692 25.6003 6.40931 27.2087L5.41096 27.266L5.35361 26.2677L7.35032 26.153L7.40767 27.1513L6.40931 27.2087ZM8.46338 28.0923L4.46996 28.3218L4.41261 27.3234Q4.30274 25.411 4.84939 23.2235Q5.35754 21.1901 6.4013 19.0383L6.83773 18.1386L10.4367 19.8843L10.0003 20.784Q9.13745 22.5628 8.73007 24.1932Q8.33111 25.79 8.40602 27.094L8.46338 28.0923ZM8.20078 19.9111Q9.07866 18.1021 10.298 16.3401Q11.4752 14.6392 12.8417 13.1662L13.5748 13.8464L12.8947 14.5795L11.4285 13.2192L12.1086 12.4861L12.8417 13.1662Q11.4752 14.6392 10.298 16.3401Q9.07869 18.102 8.20078 19.9111L7.30112 19.4746L7.7377 18.5749L9.53703 19.4481L9.10045 20.3477L8.20078 19.9111ZM9.56353 21.684L5.96487 19.9376L6.40145 19.038Q7.34654 17.0904 8.65343 15.202Q9.91188 13.3836 11.3756 11.806L12.0557 11.0729L14.988 13.7934L14.3079 14.5265Q13.0385 15.8948 11.9426 17.4783Q10.8108 19.1137 10.0001 20.7843L9.56353 21.684ZM11.7754 6.94061Q12.9481 7.28951 14.0787 7.49882L13.8966 8.48211L12.9134 8.30006L13.2775 6.33348L14.2607 6.51553L14.0787 7.49882Q12.9482 7.28951 11.7754 6.94061L12.0605 5.98212L13.019 6.26727L12.4487 8.18424L11.4902 7.89909L11.7754 6.94061ZM10.2466 8.57242L11.3872 4.73849L12.3457 5.02364Q13.4167 5.34226 14.4428 5.53224L15.4261 5.71428L14.6979 9.64744L13.7146 9.4654Q12.4796 9.23675 11.2051 8.85757L10.2466 8.57242ZM14.0787 7.49882Q15.6527 7.78873 17.036 7.78522Q18.5493 7.78139 19.7776 7.42556L20.0559 8.38608L19.0954 8.66431L18.5389 6.74329L19.4994 6.46505L19.7776 7.42556Q18.5492 7.7814 17.036 7.78522Q15.6527 7.78872 14.0787 7.49882L14.2598 6.51536L15.2433 6.6965L14.881 8.66341L13.8976 8.48227L14.0787 7.49882ZM12.733 9.28459L13.4575 5.35076L14.441 5.5319Q15.8328 5.78826 17.0309 5.78523Q18.2629 5.78212 19.2212 5.50454L20.1817 5.2263L21.2946 9.06835L20.3341 9.34659Q18.8356 9.78067 17.041 9.78522Q15.4726 9.78919 13.7164 9.46573L12.733 9.28459ZM19.7776 7.42556Q22.7629 6.5559 25.8327 6.06156L25.9917 7.04884L25.0044 7.20783L24.6864 5.23327L25.6737 5.07428L25.8327 6.06156Q22.7629 6.5559 19.7776 7.42556L19.498 6.46547L20.458 6.18578L21.0174 8.10596L20.0573 8.38565L19.7776 7.42556ZM19.3769 9.62544L18.2582 5.78508L19.2183 5.50539Q22.3225 4.60105 25.5147 4.087L26.502 3.92801L27.1379 7.87714L26.1506 8.03612Q23.2033 8.51075 20.337 9.34574L19.3769 9.62544ZM25.8327 6.06156Q22.8515 5.16397 20.0354 5.16397L20.0354 4.16397L21.0354 4.16397L21.0354 6.16397L20.0354 6.16397L20.0354 5.16397Q22.8515 5.16397 25.8327 6.06156L25.5444 7.0191L24.5868 6.7308L25.1634 4.81572L26.121 5.10402L25.8327 6.06156ZM27.3668 4.43478L26.2136 8.26494L25.2561 7.97664Q22.557 7.16397 20.0354 7.16397L19.0354 7.16397L19.0354 3.16397L20.0354 3.16397Q23.1461 3.16397 26.4093 4.14648L27.3668 4.43478ZM20.0354 5.16397Q17.8333 5.16397 15.4899 5.72021Q13.5859 6.17214 11.7754 6.94061L11.3847 6.02009L12.3052 5.62938L13.0866 7.47041L12.1661 7.86112L11.7754 6.94061Q13.586 6.17211 15.4899 5.72021Q17.8334 5.16397 20.0354 5.16397L20.0354 6.16397L19.0354 6.16397L19.0354 4.16397L20.0354 4.16397L20.0354 5.16397ZM21.0354 3.16397L21.0354 7.16397L20.0354 7.16397Q18.0675 7.16397 15.9518 7.66615Q14.212 8.07908 12.5568 8.78164L11.6363 9.17234L10.0734 5.49028L10.994 5.09958Q12.9598 4.26518 15.028 3.77428Q17.5992 3.16397 20.0354 3.16397L21.0354 3.16397Z" fill="rgb(249.688,249.688,249.688)" fill-rule="nonzero" />
	</g>
</svg>
