<svg viewBox="0 0 56 56" xmlns="http://www.w3.org/2000/svg" xmlns:xlink="http://www.w3.org/1999/xlink" width="56.000000" height="56.000000" fill="none">
	<rect id="Category-CellPhone" width="56.000000" height="56.000000" x="0.000000" y="0.000000" />
	<path id="Vector" d="M-4.8125 -4.8125L60.8125 -4.8125L60.8125 60.8125L-4.8125 60.8125L-4.8125 -4.8125Z" fill-rule="nonzero" />
	<path id="Vector" d="M38.9375 6.125C40.4477 6.125 41.6719 7.34922 41.6719 8.85938L41.6719 47.1406C41.6719 48.6508 40.4477 49.875 38.9375 49.875L17.0625 49.875C15.5523 49.875 14.3281 48.6508 14.3281 47.1406L14.3281 8.85938C14.3281 7.34922 15.5523 6.125 17.0625 6.125L38.9375 6.125Z" stroke="rgb(0,0,0)" stroke-linecap="round" stroke-linejoin="round" stroke-width="2" />
	<path id="Vector" d="M25.6667 7L31.1354 7" stroke="rgb(0,0,0)" stroke-linecap="round" stroke-linejoin="round" stroke-width="3" />
	<path id="Vector" d="M0 0L0.0252784 0" stroke="rgb(0,0,0)" stroke-linecap="round" stroke-linejoin="round" stroke-width="2.5" transform="matrix(0,1,-1,0,28,44.0052)" />
	<line id="Line 8" x1="15.1666565" x2="40.8333206" y1="39.833374" y2="39.833374" stroke="rgb(0,0,0)" stroke-width="2" />
</svg>
