<svg viewBox="0 0 56 56" xmlns="http://www.w3.org/2000/svg" xmlns:xlink="http://www.w3.org/1999/xlink" width="56.000000" height="56.000000" fill="none">
	<defs>
		<clipPath id="clipPath_0">
			<rect width="10.000000" height="13.000000" x="23.000000" y="22.000000" fill="rgb(255,255,255)" />
		</clipPath>
	</defs>
	<rect id="Category-SmartWatch" width="56.000000" height="56.000000" x="0.000000" y="0.000000" />
	<path id="Vector" d="M0 0L56 0L56 56L0 56L0 0Z" fill-rule="nonzero" />
	<path id="Vector" d="M35 14C38.866 14 42 17.134 42 21L42 35C42 38.866 38.866 42 35 42L21 42C17.134 42 14 38.866 14 35L14 21C14 17.134 17.134 14 21 14L35 14Z" stroke="rgb(0,0,0)" stroke-linecap="round" stroke-linejoin="round" stroke-width="2" />
	<path id="Vector" d="M21 42L21 49L35 49L35 42" fill-rule="nonzero" stroke="rgb(0,0,0)" stroke-linecap="round" stroke-linejoin="round" stroke-width="2" />
	<path id="Vector" d="M21 14L21 7L35 7L35 14" fill-rule="nonzero" stroke="rgb(0,0,0)" stroke-linecap="round" stroke-linejoin="round" stroke-width="2" />
	<g id="Frame 724" customFrame="url(#clipPath_0)">
		<rect id="Frame 724" width="10.000000" height="13.000000" x="23.000000" y="22.000000" />
		<line id="Line 11" x1="0" x2="13" y1="0" y2="0" stroke="rgb(0,0,0)" stroke-linecap="round" stroke-width="2" transform="matrix(1.34497e-08,1,-1,1.34497e-08,24,22)" />
		<line id="Line 10" x1="0" x2="8" y1="0" y2="0" stroke="rgb(0,0,0)" stroke-linecap="round" stroke-width="2" transform="matrix(2.18557e-08,1,-1,2.18557e-08,28,27)" />
		<line id="Line 9" x1="0" x2="10" y1="0" y2="0" stroke="rgb(0,0,0)" stroke-linecap="round" stroke-width="2" transform="matrix(6.12323e-17,1,-1,6.12323e-17,32,25)" />
	</g>
</svg>
